<svg xmlns="http://www.w3.org/2000/svg" xmlns:xlink="http://www.w3.org/1999/xlink" width="300" zoomAndPan="magnify" viewBox="0 0 224.87999 225" height="300" preserveAspectRatio="xMidYMid meet" version="1.0"><defs><g><g id="id1"/><g id="id2"/></g><clipPath id="id3"><path d="M 22 0.0585938 L 203 0.0585938 L 203 224.9375 L 22 224.9375 Z M 22 0.0585938 " clip-rule="nonzero"/></clipPath><clipPath id="id4"><path d="M 24 44.003906 L 201 44.003906 L 201 55.996094 L 24 55.996094 Z M 24 44.003906 " clip-rule="nonzero"/></clipPath></defs><path fill="rgb(32.548523%, 0%, 45.489502%)" d="M 192.8125 222.496094 L 32.066406 222.496094 C 28.15625 222.496094 24.929688 219.269531 24.929688 215.363281 L 24.929688 9.640625 C 24.929688 5.730469 28.15625 2.503906 32.066406 2.503906 L 192.714844 2.503906 C 196.625 2.503906 199.851562 5.730469 199.851562 9.640625 L 199.851562 215.261719 C 199.949219 219.269531 196.722656 222.496094 192.8125 222.496094 " fill-opacity="1" fill-rule="nonzero"/><g clip-path="url(#id3)"><path fill="rgb(17.649841%, 0%, 25.489807%)" d="M 192.8125 4.652344 C 195.550781 4.652344 197.796875 6.902344 197.796875 9.640625 L 197.796875 215.363281 C 197.796875 218.097656 195.550781 220.347656 192.8125 220.347656 L 32.066406 220.347656 C 29.328125 220.347656 27.082031 218.097656 27.082031 215.363281 L 27.082031 9.640625 C 27.082031 6.902344 29.328125 4.652344 32.066406 4.652344 L 192.8125 4.652344 M 192.8125 0.0585938 L 32.066406 0.0585938 C 26.789062 0.0585938 22.488281 4.359375 22.488281 9.640625 L 22.488281 215.363281 C 22.488281 220.640625 26.789062 224.941406 32.066406 224.941406 L 192.8125 224.941406 C 198.089844 224.941406 202.390625 220.640625 202.390625 215.363281 L 202.390625 9.640625 C 202.390625 4.359375 198.089844 0.0585938 192.8125 0.0585938 " fill-opacity="1" fill-rule="nonzero"/></g><g clip-path="url(#id4)"><path fill="rgb(17.649841%, 0%, 25.489807%)" d="M 194.835938 44.003906 L 30.042969 44.003906 C 26.792969 44.003906 24.15625 46.6875 24.15625 50 C 24.15625 53.3125 26.792969 55.996094 30.042969 55.996094 L 194.835938 55.996094 C 198.085938 55.996094 200.722656 53.3125 200.722656 50 C 200.722656 46.6875 198.085938 44.003906 194.835938 44.003906 Z M 194.835938 44.003906 " fill-opacity="1" fill-rule="nonzero"/></g><g fill="rgb(97.648621%, 65.879822%, 14.898682%)" fill-opacity="1"><g transform="translate(55.575808, 37.276223)"><g><path d="M 18.375 0 L 18.375 -10.703125 L 5.890625 -10.703125 L 5.890625 0 L 2.75 0 L 2.75 -23.09375 L 5.890625 -23.09375 L 5.890625 -13.328125 L 18.375 -13.328125 L 18.375 -23.09375 L 21.5 -23.09375 L 21.5 0 Z M 18.375 0 "/></g></g></g><g fill="rgb(97.648621%, 65.879822%, 14.898682%)" fill-opacity="1"><g transform="translate(79.809105, 37.276223)"><g><path d="M 2.75 0 L 2.75 -23.09375 L 20.265625 -23.09375 L 20.265625 -20.53125 L 5.890625 -20.53125 L 5.890625 -13.125 L 19.28125 -13.125 L 19.28125 -10.609375 L 5.890625 -10.609375 L 5.890625 -2.5625 L 20.9375 -2.5625 L 20.9375 0 Z M 2.75 0 "/></g></g></g><g fill="rgb(97.648621%, 65.879822%, 14.898682%)" fill-opacity="1"><g transform="translate(102.190902, 37.276223)"><g><path d="M 22.625 -11.78125 C 22.625 -9.394531 22.160156 -7.304688 21.234375 -5.515625 C 20.304688 -3.734375 18.988281 -2.367188 17.28125 -1.421875 C 15.582031 -0.472656 13.617188 0 11.390625 0 L 2.75 0 L 2.75 -23.09375 L 10.390625 -23.09375 C 14.296875 -23.09375 17.3125 -22.109375 19.4375 -20.140625 C 21.5625 -18.179688 22.625 -15.394531 22.625 -11.78125 Z M 19.484375 -11.78125 C 19.484375 -14.644531 18.695312 -16.828125 17.125 -18.328125 C 15.5625 -19.828125 13.296875 -20.578125 10.328125 -20.578125 L 5.890625 -20.578125 L 5.890625 -2.5 L 11.03125 -2.5 C 12.71875 -2.5 14.203125 -2.867188 15.484375 -3.609375 C 16.773438 -4.359375 17.765625 -5.429688 18.453125 -6.828125 C 19.140625 -8.234375 19.484375 -9.882812 19.484375 -11.78125 Z M 19.484375 -11.78125 "/></g></g></g><g fill="rgb(97.648621%, 65.879822%, 14.898682%)" fill-opacity="1"><g transform="translate(126.424199, 37.276223)"><g><path d="M 2.75 0 L 2.75 -23.09375 L 20.265625 -23.09375 L 20.265625 -20.53125 L 5.890625 -20.53125 L 5.890625 -13.125 L 19.28125 -13.125 L 19.28125 -10.609375 L 5.890625 -10.609375 L 5.890625 -2.5625 L 20.9375 -2.5625 L 20.9375 0 Z M 2.75 0 "/></g></g></g><g fill="rgb(97.648621%, 65.879822%, 14.898682%)" fill-opacity="1"><g transform="translate(148.805995, 37.276223)"><g><path d="M 5.890625 -20.53125 L 5.890625 -11.953125 L 18.765625 -11.953125 L 18.765625 -9.359375 L 5.890625 -9.359375 L 5.890625 0 L 2.75 0 L 2.75 -23.09375 L 19.15625 -23.09375 L 19.15625 -20.53125 Z M 5.890625 -20.53125 "/></g></g></g><g fill="rgb(97.648621%, 65.879822%, 14.898682%)" fill-opacity="1"><g transform="translate(78.788067, 95.729046)"><g><path d="M 6.546875 -0.09375 C 5.847656 0.09375 5.132812 0.1875 4.40625 0.1875 C 2.695312 0.1875 1.84375 -0.773438 1.84375 -2.703125 L 1.84375 -11.25 L 0.359375 -11.25 L 0.359375 -12.796875 L 1.921875 -12.796875 L 2.546875 -15.65625 L 3.96875 -15.65625 L 3.96875 -12.796875 L 6.34375 -12.796875 L 6.34375 -11.25 L 3.96875 -11.25 L 3.96875 -3.171875 C 3.96875 -2.554688 4.066406 -2.125 4.265625 -1.875 C 4.472656 -1.625 4.828125 -1.5 5.328125 -1.5 C 5.609375 -1.5 6.015625 -1.554688 6.546875 -1.671875 Z M 6.546875 -0.09375 "/></g></g></g><g fill="rgb(97.648621%, 65.879822%, 14.898682%)" fill-opacity="1"><g transform="translate(85.514313, 95.729046)"><g><path d="M 4.890625 0.234375 C 3.609375 0.234375 2.644531 -0.101562 2 -0.78125 C 1.351562 -1.457031 1.03125 -2.390625 1.03125 -3.578125 C 1.03125 -4.898438 1.460938 -5.914062 2.328125 -6.625 C 3.203125 -7.332031 4.609375 -7.707031 6.546875 -7.75 L 9.421875 -7.8125 L 9.421875 -8.5 C 9.421875 -9.539062 9.195312 -10.285156 8.75 -10.734375 C 8.3125 -11.179688 7.625 -11.40625 6.6875 -11.40625 C 5.726562 -11.40625 5.03125 -11.242188 4.59375 -10.921875 C 4.164062 -10.597656 3.90625 -10.082031 3.8125 -9.375 L 1.59375 -9.578125 C 1.957031 -11.878906 3.671875 -13.03125 6.734375 -13.03125 C 8.335938 -13.03125 9.546875 -12.660156 10.359375 -11.921875 C 11.171875 -11.191406 11.578125 -10.128906 11.578125 -8.734375 L 11.578125 -3.21875 C 11.578125 -2.582031 11.660156 -2.101562 11.828125 -1.78125 C 11.992188 -1.46875 12.304688 -1.3125 12.765625 -1.3125 C 12.972656 -1.3125 13.207031 -1.335938 13.46875 -1.390625 L 13.46875 -0.078125 C 12.9375 0.0546875 12.390625 0.125 11.828125 0.125 C 11.035156 0.125 10.457031 -0.0820312 10.09375 -0.5 C 9.738281 -0.914062 9.539062 -1.566406 9.5 -2.453125 L 9.421875 -2.453125 C 8.878906 -1.472656 8.242188 -0.78125 7.515625 -0.375 C 6.796875 0.03125 5.921875 0.234375 4.890625 0.234375 Z M 5.375 -1.359375 C 6.15625 -1.359375 6.847656 -1.535156 7.453125 -1.890625 C 8.066406 -2.242188 8.546875 -2.726562 8.890625 -3.34375 C 9.242188 -3.96875 9.421875 -4.609375 9.421875 -5.265625 L 9.421875 -6.3125 L 7.09375 -6.265625 C 6.09375 -6.253906 5.332031 -6.148438 4.8125 -5.953125 C 4.300781 -5.765625 3.90625 -5.472656 3.625 -5.078125 C 3.351562 -4.691406 3.21875 -4.175781 3.21875 -3.53125 C 3.21875 -2.84375 3.40625 -2.304688 3.78125 -1.921875 C 4.15625 -1.546875 4.6875 -1.359375 5.375 -1.359375 Z M 5.375 -1.359375 "/></g></g></g><g fill="rgb(97.648621%, 65.879822%, 14.898682%)" fill-opacity="1"><g transform="translate(98.978619, 95.729046)"><g><path d="M 12.453125 -6.453125 C 12.453125 -1.992188 10.882812 0.234375 7.75 0.234375 C 6.78125 0.234375 5.972656 0.0625 5.328125 -0.28125 C 4.679688 -0.632812 4.160156 -1.203125 3.765625 -1.984375 L 3.734375 -1.984375 C 3.734375 -1.742188 3.71875 -1.375 3.6875 -0.875 C 3.65625 -0.375 3.632812 -0.0820312 3.625 0 L 1.5625 0 C 1.601562 -0.425781 1.625 -1.304688 1.625 -2.640625 L 1.625 -17.546875 L 3.765625 -17.546875 L 3.765625 -12.546875 C 3.765625 -12.035156 3.75 -11.429688 3.71875 -10.734375 L 3.765625 -10.734375 C 4.160156 -11.554688 4.679688 -12.144531 5.328125 -12.5 C 5.972656 -12.851562 6.78125 -13.03125 7.75 -13.03125 C 9.363281 -13.03125 10.550781 -12.484375 11.3125 -11.390625 C 12.070312 -10.304688 12.453125 -8.660156 12.453125 -6.453125 Z M 10.21875 -6.390625 C 10.21875 -8.171875 9.976562 -9.445312 9.5 -10.21875 C 9.03125 -11 8.265625 -11.390625 7.203125 -11.390625 C 6.003906 -11.390625 5.128906 -10.976562 4.578125 -10.15625 C 4.035156 -9.332031 3.765625 -8.03125 3.765625 -6.25 C 3.765625 -4.570312 4.03125 -3.332031 4.5625 -2.53125 C 5.101562 -1.738281 5.972656 -1.34375 7.171875 -1.34375 C 8.242188 -1.34375 9.019531 -1.738281 9.5 -2.53125 C 9.976562 -3.320312 10.21875 -4.609375 10.21875 -6.390625 Z M 10.21875 -6.390625 "/></g></g></g><g fill="rgb(97.648621%, 65.879822%, 14.898682%)" fill-opacity="1"><g transform="translate(112.442926, 95.729046)"><g><path d="M 3.71875 -12.796875 L 3.71875 -4.6875 C 3.71875 -3.84375 3.796875 -3.1875 3.953125 -2.71875 C 4.117188 -2.25 4.382812 -1.910156 4.75 -1.703125 C 5.113281 -1.503906 5.644531 -1.40625 6.34375 -1.40625 C 7.375 -1.40625 8.179688 -1.753906 8.765625 -2.453125 C 9.359375 -3.160156 9.65625 -4.132812 9.65625 -5.375 L 9.65625 -12.796875 L 11.796875 -12.796875 L 11.796875 -2.734375 C 11.796875 -1.242188 11.816406 -0.332031 11.859375 0 L 9.84375 0 C 9.84375 -0.0390625 9.835938 -0.144531 9.828125 -0.3125 C 9.816406 -0.488281 9.804688 -0.6875 9.796875 -0.90625 C 9.785156 -1.132812 9.769531 -1.5625 9.75 -2.1875 L 9.71875 -2.1875 C 9.226562 -1.300781 8.660156 -0.675781 8.015625 -0.3125 C 7.378906 0.0507812 6.582031 0.234375 5.625 0.234375 C 4.226562 0.234375 3.203125 -0.113281 2.546875 -0.8125 C 1.898438 -1.507812 1.578125 -2.660156 1.578125 -4.265625 L 1.578125 -12.796875 Z M 3.71875 -12.796875 "/></g></g></g><g fill="rgb(97.648621%, 65.879822%, 14.898682%)" fill-opacity="1"><g transform="translate(125.907232, 95.729046)"><g/></g></g><g fill="rgb(97.648621%, 65.879822%, 14.898682%)" fill-opacity="1"><g transform="translate(132.633478, 95.729046)"><g><path d="M 1.84375 0 L 1.84375 -1.8125 L 6.09375 -1.8125 L 6.09375 -14.625 L 2.328125 -11.9375 L 2.328125 -13.953125 L 6.265625 -16.65625 L 8.234375 -16.65625 L 8.234375 -1.8125 L 12.28125 -1.8125 L 12.28125 0 Z M 1.84375 0 "/></g></g></g><g fill="rgb(97.648621%, 65.879822%, 14.898682%)" fill-opacity="1"><g transform="translate(78.788067, 123.575067)"><g><path d="M 6.546875 -0.09375 C 5.847656 0.09375 5.132812 0.1875 4.40625 0.1875 C 2.695312 0.1875 1.84375 -0.773438 1.84375 -2.703125 L 1.84375 -11.25 L 0.359375 -11.25 L 0.359375 -12.796875 L 1.921875 -12.796875 L 2.546875 -15.65625 L 3.96875 -15.65625 L 3.96875 -12.796875 L 6.34375 -12.796875 L 6.34375 -11.25 L 3.96875 -11.25 L 3.96875 -3.171875 C 3.96875 -2.554688 4.066406 -2.125 4.265625 -1.875 C 4.472656 -1.625 4.828125 -1.5 5.328125 -1.5 C 5.609375 -1.5 6.015625 -1.554688 6.546875 -1.671875 Z M 6.546875 -0.09375 "/></g></g></g><g fill="rgb(97.648621%, 65.879822%, 14.898682%)" fill-opacity="1"><g transform="translate(85.514313, 123.575067)"><g><path d="M 4.890625 0.234375 C 3.609375 0.234375 2.644531 -0.101562 2 -0.78125 C 1.351562 -1.457031 1.03125 -2.390625 1.03125 -3.578125 C 1.03125 -4.898438 1.460938 -5.914062 2.328125 -6.625 C 3.203125 -7.332031 4.609375 -7.707031 6.546875 -7.75 L 9.421875 -7.8125 L 9.421875 -8.5 C 9.421875 -9.539062 9.195312 -10.285156 8.75 -10.734375 C 8.3125 -11.179688 7.625 -11.40625 6.6875 -11.40625 C 5.726562 -11.40625 5.03125 -11.242188 4.59375 -10.921875 C 4.164062 -10.597656 3.90625 -10.082031 3.8125 -9.375 L 1.59375 -9.578125 C 1.957031 -11.878906 3.671875 -13.03125 6.734375 -13.03125 C 8.335938 -13.03125 9.546875 -12.660156 10.359375 -11.921875 C 11.171875 -11.191406 11.578125 -10.128906 11.578125 -8.734375 L 11.578125 -3.21875 C 11.578125 -2.582031 11.660156 -2.101562 11.828125 -1.78125 C 11.992188 -1.46875 12.304688 -1.3125 12.765625 -1.3125 C 12.972656 -1.3125 13.207031 -1.335938 13.46875 -1.390625 L 13.46875 -0.078125 C 12.9375 0.0546875 12.390625 0.125 11.828125 0.125 C 11.035156 0.125 10.457031 -0.0820312 10.09375 -0.5 C 9.738281 -0.914062 9.539062 -1.566406 9.5 -2.453125 L 9.421875 -2.453125 C 8.878906 -1.472656 8.242188 -0.78125 7.515625 -0.375 C 6.796875 0.03125 5.921875 0.234375 4.890625 0.234375 Z M 5.375 -1.359375 C 6.15625 -1.359375 6.847656 -1.535156 7.453125 -1.890625 C 8.066406 -2.242188 8.546875 -2.726562 8.890625 -3.34375 C 9.242188 -3.96875 9.421875 -4.609375 9.421875 -5.265625 L 9.421875 -6.3125 L 7.09375 -6.265625 C 6.09375 -6.253906 5.332031 -6.148438 4.8125 -5.953125 C 4.300781 -5.765625 3.90625 -5.472656 3.625 -5.078125 C 3.351562 -4.691406 3.21875 -4.175781 3.21875 -3.53125 C 3.21875 -2.84375 3.40625 -2.304688 3.78125 -1.921875 C 4.15625 -1.546875 4.6875 -1.359375 5.375 -1.359375 Z M 5.375 -1.359375 "/></g></g></g><g fill="rgb(97.648621%, 65.879822%, 14.898682%)" fill-opacity="1"><g transform="translate(98.978619, 123.575067)"><g><path d="M 12.453125 -6.453125 C 12.453125 -1.992188 10.882812 0.234375 7.75 0.234375 C 6.78125 0.234375 5.972656 0.0625 5.328125 -0.28125 C 4.679688 -0.632812 4.160156 -1.203125 3.765625 -1.984375 L 3.734375 -1.984375 C 3.734375 -1.742188 3.71875 -1.375 3.6875 -0.875 C 3.65625 -0.375 3.632812 -0.0820312 3.625 0 L 1.5625 0 C 1.601562 -0.425781 1.625 -1.304688 1.625 -2.640625 L 1.625 -17.546875 L 3.765625 -17.546875 L 3.765625 -12.546875 C 3.765625 -12.035156 3.75 -11.429688 3.71875 -10.734375 L 3.765625 -10.734375 C 4.160156 -11.554688 4.679688 -12.144531 5.328125 -12.5 C 5.972656 -12.851562 6.78125 -13.03125 7.75 -13.03125 C 9.363281 -13.03125 10.550781 -12.484375 11.3125 -11.390625 C 12.070312 -10.304688 12.453125 -8.660156 12.453125 -6.453125 Z M 10.21875 -6.390625 C 10.21875 -8.171875 9.976562 -9.445312 9.5 -10.21875 C 9.03125 -11 8.265625 -11.390625 7.203125 -11.390625 C 6.003906 -11.390625 5.128906 -10.976562 4.578125 -10.15625 C 4.035156 -9.332031 3.765625 -8.03125 3.765625 -6.25 C 3.765625 -4.570312 4.03125 -3.332031 4.5625 -2.53125 C 5.101562 -1.738281 5.972656 -1.34375 7.171875 -1.34375 C 8.242188 -1.34375 9.019531 -1.738281 9.5 -2.53125 C 9.976562 -3.320312 10.21875 -4.609375 10.21875 -6.390625 Z M 10.21875 -6.390625 "/></g></g></g><g fill="rgb(97.648621%, 65.879822%, 14.898682%)" fill-opacity="1"><g transform="translate(112.442926, 123.575067)"><g><path d="M 3.71875 -12.796875 L 3.71875 -4.6875 C 3.71875 -3.84375 3.796875 -3.1875 3.953125 -2.71875 C 4.117188 -2.25 4.382812 -1.910156 4.75 -1.703125 C 5.113281 -1.503906 5.644531 -1.40625 6.34375 -1.40625 C 7.375 -1.40625 8.179688 -1.753906 8.765625 -2.453125 C 9.359375 -3.160156 9.65625 -4.132812 9.65625 -5.375 L 9.65625 -12.796875 L 11.796875 -12.796875 L 11.796875 -2.734375 C 11.796875 -1.242188 11.816406 -0.332031 11.859375 0 L 9.84375 0 C 9.84375 -0.0390625 9.835938 -0.144531 9.828125 -0.3125 C 9.816406 -0.488281 9.804688 -0.6875 9.796875 -0.90625 C 9.785156 -1.132812 9.769531 -1.5625 9.75 -2.1875 L 9.71875 -2.1875 C 9.226562 -1.300781 8.660156 -0.675781 8.015625 -0.3125 C 7.378906 0.0507812 6.582031 0.234375 5.625 0.234375 C 4.226562 0.234375 3.203125 -0.113281 2.546875 -0.8125 C 1.898438 -1.507812 1.578125 -2.660156 1.578125 -4.265625 L 1.578125 -12.796875 Z M 3.71875 -12.796875 "/></g></g></g><g fill="rgb(97.648621%, 65.879822%, 14.898682%)" fill-opacity="1"><g transform="translate(125.907232, 123.575067)"><g/></g></g><g fill="rgb(97.648621%, 65.879822%, 14.898682%)" fill-opacity="1"><g transform="translate(132.633478, 123.575067)"><g><path d="M 1.21875 0 L 1.21875 -1.5 C 1.625 -2.425781 2.113281 -3.238281 2.6875 -3.9375 C 3.269531 -4.644531 3.878906 -5.285156 4.515625 -5.859375 C 5.148438 -6.429688 5.78125 -6.960938 6.40625 -7.453125 C 7.039062 -7.941406 7.609375 -8.429688 8.109375 -8.921875 C 8.617188 -9.410156 9.023438 -9.921875 9.328125 -10.453125 C 9.640625 -10.992188 9.796875 -11.601562 9.796875 -12.28125 C 9.796875 -13.1875 9.523438 -13.890625 8.984375 -14.390625 C 8.453125 -14.898438 7.710938 -15.15625 6.765625 -15.15625 C 5.859375 -15.15625 5.109375 -14.910156 4.515625 -14.421875 C 3.929688 -13.929688 3.585938 -13.238281 3.484375 -12.34375 L 1.3125 -12.546875 C 1.46875 -13.878906 2.03125 -14.9375 3 -15.71875 C 3.976562 -16.507812 5.234375 -16.90625 6.765625 -16.90625 C 8.441406 -16.90625 9.726562 -16.507812 10.625 -15.71875 C 11.53125 -14.925781 11.984375 -13.800781 11.984375 -12.34375 C 11.984375 -11.695312 11.835938 -11.050781 11.546875 -10.40625 C 11.253906 -9.769531 10.816406 -9.132812 10.234375 -8.5 C 9.648438 -7.863281 8.53125 -6.875 6.875 -5.53125 C 5.96875 -4.789062 5.25 -4.125 4.71875 -3.53125 C 4.1875 -2.9375 3.800781 -2.363281 3.5625 -1.8125 L 12.25 -1.8125 L 12.25 0 Z M 1.21875 0 "/></g></g></g><g fill="rgb(97.648621%, 65.879822%, 14.898682%)" fill-opacity="1"><g transform="translate(78.788067, 151.421079)"><g><path d="M 6.546875 -0.09375 C 5.847656 0.09375 5.132812 0.1875 4.40625 0.1875 C 2.695312 0.1875 1.84375 -0.773438 1.84375 -2.703125 L 1.84375 -11.25 L 0.359375 -11.25 L 0.359375 -12.796875 L 1.921875 -12.796875 L 2.546875 -15.65625 L 3.96875 -15.65625 L 3.96875 -12.796875 L 6.34375 -12.796875 L 6.34375 -11.25 L 3.96875 -11.25 L 3.96875 -3.171875 C 3.96875 -2.554688 4.066406 -2.125 4.265625 -1.875 C 4.472656 -1.625 4.828125 -1.5 5.328125 -1.5 C 5.609375 -1.5 6.015625 -1.554688 6.546875 -1.671875 Z M 6.546875 -0.09375 "/></g></g></g><g fill="rgb(97.648621%, 65.879822%, 14.898682%)" fill-opacity="1"><g transform="translate(85.514313, 151.421079)"><g><path d="M 4.890625 0.234375 C 3.609375 0.234375 2.644531 -0.101562 2 -0.78125 C 1.351562 -1.457031 1.03125 -2.390625 1.03125 -3.578125 C 1.03125 -4.898438 1.460938 -5.914062 2.328125 -6.625 C 3.203125 -7.332031 4.609375 -7.707031 6.546875 -7.75 L 9.421875 -7.8125 L 9.421875 -8.5 C 9.421875 -9.539062 9.195312 -10.285156 8.75 -10.734375 C 8.3125 -11.179688 7.625 -11.40625 6.6875 -11.40625 C 5.726562 -11.40625 5.03125 -11.242188 4.59375 -10.921875 C 4.164062 -10.597656 3.90625 -10.082031 3.8125 -9.375 L 1.59375 -9.578125 C 1.957031 -11.878906 3.671875 -13.03125 6.734375 -13.03125 C 8.335938 -13.03125 9.546875 -12.660156 10.359375 -11.921875 C 11.171875 -11.191406 11.578125 -10.128906 11.578125 -8.734375 L 11.578125 -3.21875 C 11.578125 -2.582031 11.660156 -2.101562 11.828125 -1.78125 C 11.992188 -1.46875 12.304688 -1.3125 12.765625 -1.3125 C 12.972656 -1.3125 13.207031 -1.335938 13.46875 -1.390625 L 13.46875 -0.078125 C 12.9375 0.0546875 12.390625 0.125 11.828125 0.125 C 11.035156 0.125 10.457031 -0.0820312 10.09375 -0.5 C 9.738281 -0.914062 9.539062 -1.566406 9.5 -2.453125 L 9.421875 -2.453125 C 8.878906 -1.472656 8.242188 -0.78125 7.515625 -0.375 C 6.796875 0.03125 5.921875 0.234375 4.890625 0.234375 Z M 5.375 -1.359375 C 6.15625 -1.359375 6.847656 -1.535156 7.453125 -1.890625 C 8.066406 -2.242188 8.546875 -2.726562 8.890625 -3.34375 C 9.242188 -3.96875 9.421875 -4.609375 9.421875 -5.265625 L 9.421875 -6.3125 L 7.09375 -6.265625 C 6.09375 -6.253906 5.332031 -6.148438 4.8125 -5.953125 C 4.300781 -5.765625 3.90625 -5.472656 3.625 -5.078125 C 3.351562 -4.691406 3.21875 -4.175781 3.21875 -3.53125 C 3.21875 -2.84375 3.40625 -2.304688 3.78125 -1.921875 C 4.15625 -1.546875 4.6875 -1.359375 5.375 -1.359375 Z M 5.375 -1.359375 "/></g></g></g><g fill="rgb(97.648621%, 65.879822%, 14.898682%)" fill-opacity="1"><g transform="translate(98.978619, 151.421079)"><g><path d="M 12.453125 -6.453125 C 12.453125 -1.992188 10.882812 0.234375 7.75 0.234375 C 6.78125 0.234375 5.972656 0.0625 5.328125 -0.28125 C 4.679688 -0.632812 4.160156 -1.203125 3.765625 -1.984375 L 3.734375 -1.984375 C 3.734375 -1.742188 3.71875 -1.375 3.6875 -0.875 C 3.65625 -0.375 3.632812 -0.0820312 3.625 0 L 1.5625 0 C 1.601562 -0.425781 1.625 -1.304688 1.625 -2.640625 L 1.625 -17.546875 L 3.765625 -17.546875 L 3.765625 -12.546875 C 3.765625 -12.035156 3.75 -11.429688 3.71875 -10.734375 L 3.765625 -10.734375 C 4.160156 -11.554688 4.679688 -12.144531 5.328125 -12.5 C 5.972656 -12.851562 6.78125 -13.03125 7.75 -13.03125 C 9.363281 -13.03125 10.550781 -12.484375 11.3125 -11.390625 C 12.070312 -10.304688 12.453125 -8.660156 12.453125 -6.453125 Z M 10.21875 -6.390625 C 10.21875 -8.171875 9.976562 -9.445312 9.5 -10.21875 C 9.03125 -11 8.265625 -11.390625 7.203125 -11.390625 C 6.003906 -11.390625 5.128906 -10.976562 4.578125 -10.15625 C 4.035156 -9.332031 3.765625 -8.03125 3.765625 -6.25 C 3.765625 -4.570312 4.03125 -3.332031 4.5625 -2.53125 C 5.101562 -1.738281 5.972656 -1.34375 7.171875 -1.34375 C 8.242188 -1.34375 9.019531 -1.738281 9.5 -2.53125 C 9.976562 -3.320312 10.21875 -4.609375 10.21875 -6.390625 Z M 10.21875 -6.390625 "/></g></g></g><g fill="rgb(97.648621%, 65.879822%, 14.898682%)" fill-opacity="1"><g transform="translate(112.442926, 151.421079)"><g><path d="M 3.71875 -12.796875 L 3.71875 -4.6875 C 3.71875 -3.84375 3.796875 -3.1875 3.953125 -2.71875 C 4.117188 -2.25 4.382812 -1.910156 4.75 -1.703125 C 5.113281 -1.503906 5.644531 -1.40625 6.34375 -1.40625 C 7.375 -1.40625 8.179688 -1.753906 8.765625 -2.453125 C 9.359375 -3.160156 9.65625 -4.132812 9.65625 -5.375 L 9.65625 -12.796875 L 11.796875 -12.796875 L 11.796875 -2.734375 C 11.796875 -1.242188 11.816406 -0.332031 11.859375 0 L 9.84375 0 C 9.84375 -0.0390625 9.835938 -0.144531 9.828125 -0.3125 C 9.816406 -0.488281 9.804688 -0.6875 9.796875 -0.90625 C 9.785156 -1.132812 9.769531 -1.5625 9.75 -2.1875 L 9.71875 -2.1875 C 9.226562 -1.300781 8.660156 -0.675781 8.015625 -0.3125 C 7.378906 0.0507812 6.582031 0.234375 5.625 0.234375 C 4.226562 0.234375 3.203125 -0.113281 2.546875 -0.8125 C 1.898438 -1.507812 1.578125 -2.660156 1.578125 -4.265625 L 1.578125 -12.796875 Z M 3.71875 -12.796875 "/></g></g></g><g fill="rgb(97.648621%, 65.879822%, 14.898682%)" fill-opacity="1"><g transform="translate(125.907232, 151.421079)"><g/></g></g><g fill="rgb(97.648621%, 65.879822%, 14.898682%)" fill-opacity="1"><g transform="translate(132.633478, 151.421079)"><g><path d="M 12.40625 -4.59375 C 12.40625 -3.0625 11.914062 -1.875 10.9375 -1.03125 C 9.957031 -0.1875 8.5625 0.234375 6.75 0.234375 C 5.0625 0.234375 3.710938 -0.144531 2.703125 -0.90625 C 1.703125 -1.664062 1.109375 -2.789062 0.921875 -4.28125 L 3.125 -4.484375 C 3.40625 -2.515625 4.613281 -1.53125 6.75 -1.53125 C 7.820312 -1.53125 8.660156 -1.789062 9.265625 -2.3125 C 9.878906 -2.84375 10.1875 -3.628906 10.1875 -4.671875 C 10.1875 -5.578125 9.835938 -6.285156 9.140625 -6.796875 C 8.441406 -7.304688 7.4375 -7.5625 6.125 -7.5625 L 4.921875 -7.5625 L 4.921875 -9.40625 L 6.078125 -9.40625 C 7.242188 -9.40625 8.144531 -9.65625 8.78125 -10.15625 C 9.425781 -10.664062 9.75 -11.375 9.75 -12.28125 C 9.75 -13.164062 9.488281 -13.863281 8.96875 -14.375 C 8.445312 -14.894531 7.671875 -15.15625 6.640625 -15.15625 C 5.703125 -15.15625 4.941406 -14.914062 4.359375 -14.4375 C 3.773438 -13.957031 3.4375 -13.28125 3.34375 -12.40625 L 1.203125 -12.578125 C 1.359375 -13.929688 1.921875 -14.988281 2.890625 -15.75 C 3.867188 -16.519531 5.125 -16.90625 6.65625 -16.90625 C 8.332031 -16.90625 9.628906 -16.515625 10.546875 -15.734375 C 11.472656 -14.960938 11.9375 -13.882812 11.9375 -12.5 C 11.9375 -11.4375 11.640625 -10.570312 11.046875 -9.90625 C 10.453125 -9.238281 9.585938 -8.785156 8.453125 -8.546875 L 8.453125 -8.5 C 9.703125 -8.363281 10.671875 -7.945312 11.359375 -7.25 C 12.054688 -6.550781 12.40625 -5.664062 12.40625 -4.59375 Z M 12.40625 -4.59375 "/></g></g></g><g fill="rgb(97.648621%, 65.879822%, 14.898682%)" fill-opacity="1"><g transform="translate(78.788067, 179.267107)"><g><path d="M 6.546875 -0.09375 C 5.847656 0.09375 5.132812 0.1875 4.40625 0.1875 C 2.695312 0.1875 1.84375 -0.773438 1.84375 -2.703125 L 1.84375 -11.25 L 0.359375 -11.25 L 0.359375 -12.796875 L 1.921875 -12.796875 L 2.546875 -15.65625 L 3.96875 -15.65625 L 3.96875 -12.796875 L 6.34375 -12.796875 L 6.34375 -11.25 L 3.96875 -11.25 L 3.96875 -3.171875 C 3.96875 -2.554688 4.066406 -2.125 4.265625 -1.875 C 4.472656 -1.625 4.828125 -1.5 5.328125 -1.5 C 5.609375 -1.5 6.015625 -1.554688 6.546875 -1.671875 Z M 6.546875 -0.09375 "/></g></g></g><g fill="rgb(97.648621%, 65.879822%, 14.898682%)" fill-opacity="1"><g transform="translate(85.514313, 179.267107)"><g><path d="M 4.890625 0.234375 C 3.609375 0.234375 2.644531 -0.101562 2 -0.78125 C 1.351562 -1.457031 1.03125 -2.390625 1.03125 -3.578125 C 1.03125 -4.898438 1.460938 -5.914062 2.328125 -6.625 C 3.203125 -7.332031 4.609375 -7.707031 6.546875 -7.75 L 9.421875 -7.8125 L 9.421875 -8.5 C 9.421875 -9.539062 9.195312 -10.285156 8.75 -10.734375 C 8.3125 -11.179688 7.625 -11.40625 6.6875 -11.40625 C 5.726562 -11.40625 5.03125 -11.242188 4.59375 -10.921875 C 4.164062 -10.597656 3.90625 -10.082031 3.8125 -9.375 L 1.59375 -9.578125 C 1.957031 -11.878906 3.671875 -13.03125 6.734375 -13.03125 C 8.335938 -13.03125 9.546875 -12.660156 10.359375 -11.921875 C 11.171875 -11.191406 11.578125 -10.128906 11.578125 -8.734375 L 11.578125 -3.21875 C 11.578125 -2.582031 11.660156 -2.101562 11.828125 -1.78125 C 11.992188 -1.46875 12.304688 -1.3125 12.765625 -1.3125 C 12.972656 -1.3125 13.207031 -1.335938 13.46875 -1.390625 L 13.46875 -0.078125 C 12.9375 0.0546875 12.390625 0.125 11.828125 0.125 C 11.035156 0.125 10.457031 -0.0820312 10.09375 -0.5 C 9.738281 -0.914062 9.539062 -1.566406 9.5 -2.453125 L 9.421875 -2.453125 C 8.878906 -1.472656 8.242188 -0.78125 7.515625 -0.375 C 6.796875 0.03125 5.921875 0.234375 4.890625 0.234375 Z M 5.375 -1.359375 C 6.15625 -1.359375 6.847656 -1.535156 7.453125 -1.890625 C 8.066406 -2.242188 8.546875 -2.726562 8.890625 -3.34375 C 9.242188 -3.96875 9.421875 -4.609375 9.421875 -5.265625 L 9.421875 -6.3125 L 7.09375 -6.265625 C 6.09375 -6.253906 5.332031 -6.148438 4.8125 -5.953125 C 4.300781 -5.765625 3.90625 -5.472656 3.625 -5.078125 C 3.351562 -4.691406 3.21875 -4.175781 3.21875 -3.53125 C 3.21875 -2.84375 3.40625 -2.304688 3.78125 -1.921875 C 4.15625 -1.546875 4.6875 -1.359375 5.375 -1.359375 Z M 5.375 -1.359375 "/></g></g></g><g fill="rgb(97.648621%, 65.879822%, 14.898682%)" fill-opacity="1"><g transform="translate(98.978619, 179.267107)"><g><path d="M 12.453125 -6.453125 C 12.453125 -1.992188 10.882812 0.234375 7.75 0.234375 C 6.78125 0.234375 5.972656 0.0625 5.328125 -0.28125 C 4.679688 -0.632812 4.160156 -1.203125 3.765625 -1.984375 L 3.734375 -1.984375 C 3.734375 -1.742188 3.71875 -1.375 3.6875 -0.875 C 3.65625 -0.375 3.632812 -0.0820312 3.625 0 L 1.5625 0 C 1.601562 -0.425781 1.625 -1.304688 1.625 -2.640625 L 1.625 -17.546875 L 3.765625 -17.546875 L 3.765625 -12.546875 C 3.765625 -12.035156 3.75 -11.429688 3.71875 -10.734375 L 3.765625 -10.734375 C 4.160156 -11.554688 4.679688 -12.144531 5.328125 -12.5 C 5.972656 -12.851562 6.78125 -13.03125 7.75 -13.03125 C 9.363281 -13.03125 10.550781 -12.484375 11.3125 -11.390625 C 12.070312 -10.304688 12.453125 -8.660156 12.453125 -6.453125 Z M 10.21875 -6.390625 C 10.21875 -8.171875 9.976562 -9.445312 9.5 -10.21875 C 9.03125 -11 8.265625 -11.390625 7.203125 -11.390625 C 6.003906 -11.390625 5.128906 -10.976562 4.578125 -10.15625 C 4.035156 -9.332031 3.765625 -8.03125 3.765625 -6.25 C 3.765625 -4.570312 4.03125 -3.332031 4.5625 -2.53125 C 5.101562 -1.738281 5.972656 -1.34375 7.171875 -1.34375 C 8.242188 -1.34375 9.019531 -1.738281 9.5 -2.53125 C 9.976562 -3.320312 10.21875 -4.609375 10.21875 -6.390625 Z M 10.21875 -6.390625 "/></g></g></g><g fill="rgb(97.648621%, 65.879822%, 14.898682%)" fill-opacity="1"><g transform="translate(112.442926, 179.267107)"><g><path d="M 3.71875 -12.796875 L 3.71875 -4.6875 C 3.71875 -3.84375 3.796875 -3.1875 3.953125 -2.71875 C 4.117188 -2.25 4.382812 -1.910156 4.75 -1.703125 C 5.113281 -1.503906 5.644531 -1.40625 6.34375 -1.40625 C 7.375 -1.40625 8.179688 -1.753906 8.765625 -2.453125 C 9.359375 -3.160156 9.65625 -4.132812 9.65625 -5.375 L 9.65625 -12.796875 L 11.796875 -12.796875 L 11.796875 -2.734375 C 11.796875 -1.242188 11.816406 -0.332031 11.859375 0 L 9.84375 0 C 9.84375 -0.0390625 9.835938 -0.144531 9.828125 -0.3125 C 9.816406 -0.488281 9.804688 -0.6875 9.796875 -0.90625 C 9.785156 -1.132812 9.769531 -1.5625 9.75 -2.1875 L 9.71875 -2.1875 C 9.226562 -1.300781 8.660156 -0.675781 8.015625 -0.3125 C 7.378906 0.0507812 6.582031 0.234375 5.625 0.234375 C 4.226562 0.234375 3.203125 -0.113281 2.546875 -0.8125 C 1.898438 -1.507812 1.578125 -2.660156 1.578125 -4.265625 L 1.578125 -12.796875 Z M 3.71875 -12.796875 "/></g></g></g><g fill="rgb(97.648621%, 65.879822%, 14.898682%)" fill-opacity="1"><g transform="translate(125.907232, 179.267107)"><g/></g></g><g fill="rgb(97.648621%, 65.879822%, 14.898682%)" fill-opacity="1"><g transform="translate(132.633478, 179.267107)"><g><path d="M 10.421875 -3.765625 L 10.421875 0 L 8.40625 0 L 8.40625 -3.765625 L 0.5625 -3.765625 L 0.5625 -5.421875 L 8.1875 -16.65625 L 10.421875 -16.65625 L 10.421875 -5.453125 L 12.765625 -5.453125 L 12.765625 -3.765625 Z M 8.40625 -14.265625 C 8.394531 -14.210938 8.285156 -14 8.078125 -13.625 C 7.867188 -13.257812 7.710938 -13.003906 7.609375 -12.859375 L 3.34375 -6.5625 L 2.703125 -5.6875 L 2.515625 -5.453125 L 8.40625 -5.453125 Z M 8.40625 -14.265625 "/></g></g></g><g fill="rgb(97.648621%, 65.879822%, 14.898682%)" fill-opacity="1"><g transform="translate(78.788067, 207.113132)"><g><path d="M 6.546875 -0.09375 C 5.847656 0.09375 5.132812 0.1875 4.40625 0.1875 C 2.695312 0.1875 1.84375 -0.773438 1.84375 -2.703125 L 1.84375 -11.25 L 0.359375 -11.25 L 0.359375 -12.796875 L 1.921875 -12.796875 L 2.546875 -15.65625 L 3.96875 -15.65625 L 3.96875 -12.796875 L 6.34375 -12.796875 L 6.34375 -11.25 L 3.96875 -11.25 L 3.96875 -3.171875 C 3.96875 -2.554688 4.066406 -2.125 4.265625 -1.875 C 4.472656 -1.625 4.828125 -1.5 5.328125 -1.5 C 5.609375 -1.5 6.015625 -1.554688 6.546875 -1.671875 Z M 6.546875 -0.09375 "/></g></g></g><g fill="rgb(97.648621%, 65.879822%, 14.898682%)" fill-opacity="1"><g transform="translate(85.514313, 207.113132)"><g><path d="M 4.890625 0.234375 C 3.609375 0.234375 2.644531 -0.101562 2 -0.78125 C 1.351562 -1.457031 1.03125 -2.390625 1.03125 -3.578125 C 1.03125 -4.898438 1.460938 -5.914062 2.328125 -6.625 C 3.203125 -7.332031 4.609375 -7.707031 6.546875 -7.75 L 9.421875 -7.8125 L 9.421875 -8.5 C 9.421875 -9.539062 9.195312 -10.285156 8.75 -10.734375 C 8.3125 -11.179688 7.625 -11.40625 6.6875 -11.40625 C 5.726562 -11.40625 5.03125 -11.242188 4.59375 -10.921875 C 4.164062 -10.597656 3.90625 -10.082031 3.8125 -9.375 L 1.59375 -9.578125 C 1.957031 -11.878906 3.671875 -13.03125 6.734375 -13.03125 C 8.335938 -13.03125 9.546875 -12.660156 10.359375 -11.921875 C 11.171875 -11.191406 11.578125 -10.128906 11.578125 -8.734375 L 11.578125 -3.21875 C 11.578125 -2.582031 11.660156 -2.101562 11.828125 -1.78125 C 11.992188 -1.46875 12.304688 -1.3125 12.765625 -1.3125 C 12.972656 -1.3125 13.207031 -1.335938 13.46875 -1.390625 L 13.46875 -0.078125 C 12.9375 0.0546875 12.390625 0.125 11.828125 0.125 C 11.035156 0.125 10.457031 -0.0820312 10.09375 -0.5 C 9.738281 -0.914062 9.539062 -1.566406 9.5 -2.453125 L 9.421875 -2.453125 C 8.878906 -1.472656 8.242188 -0.78125 7.515625 -0.375 C 6.796875 0.03125 5.921875 0.234375 4.890625 0.234375 Z M 5.375 -1.359375 C 6.15625 -1.359375 6.847656 -1.535156 7.453125 -1.890625 C 8.066406 -2.242188 8.546875 -2.726562 8.890625 -3.34375 C 9.242188 -3.96875 9.421875 -4.609375 9.421875 -5.265625 L 9.421875 -6.3125 L 7.09375 -6.265625 C 6.09375 -6.253906 5.332031 -6.148438 4.8125 -5.953125 C 4.300781 -5.765625 3.90625 -5.472656 3.625 -5.078125 C 3.351562 -4.691406 3.21875 -4.175781 3.21875 -3.53125 C 3.21875 -2.84375 3.40625 -2.304688 3.78125 -1.921875 C 4.15625 -1.546875 4.6875 -1.359375 5.375 -1.359375 Z M 5.375 -1.359375 "/></g></g></g><g fill="rgb(97.648621%, 65.879822%, 14.898682%)" fill-opacity="1"><g transform="translate(98.978619, 207.113132)"><g><path d="M 12.453125 -6.453125 C 12.453125 -1.992188 10.882812 0.234375 7.75 0.234375 C 6.78125 0.234375 5.972656 0.0625 5.328125 -0.28125 C 4.679688 -0.632812 4.160156 -1.203125 3.765625 -1.984375 L 3.734375 -1.984375 C 3.734375 -1.742188 3.71875 -1.375 3.6875 -0.875 C 3.65625 -0.375 3.632812 -0.0820312 3.625 0 L 1.5625 0 C 1.601562 -0.425781 1.625 -1.304688 1.625 -2.640625 L 1.625 -17.546875 L 3.765625 -17.546875 L 3.765625 -12.546875 C 3.765625 -12.035156 3.75 -11.429688 3.71875 -10.734375 L 3.765625 -10.734375 C 4.160156 -11.554688 4.679688 -12.144531 5.328125 -12.5 C 5.972656 -12.851562 6.78125 -13.03125 7.75 -13.03125 C 9.363281 -13.03125 10.550781 -12.484375 11.3125 -11.390625 C 12.070312 -10.304688 12.453125 -8.660156 12.453125 -6.453125 Z M 10.21875 -6.390625 C 10.21875 -8.171875 9.976562 -9.445312 9.5 -10.21875 C 9.03125 -11 8.265625 -11.390625 7.203125 -11.390625 C 6.003906 -11.390625 5.128906 -10.976562 4.578125 -10.15625 C 4.035156 -9.332031 3.765625 -8.03125 3.765625 -6.25 C 3.765625 -4.570312 4.03125 -3.332031 4.5625 -2.53125 C 5.101562 -1.738281 5.972656 -1.34375 7.171875 -1.34375 C 8.242188 -1.34375 9.019531 -1.738281 9.5 -2.53125 C 9.976562 -3.320312 10.21875 -4.609375 10.21875 -6.390625 Z M 10.21875 -6.390625 "/></g></g></g><g fill="rgb(97.648621%, 65.879822%, 14.898682%)" fill-opacity="1"><g transform="translate(112.442926, 207.113132)"><g><path d="M 3.71875 -12.796875 L 3.71875 -4.6875 C 3.71875 -3.84375 3.796875 -3.1875 3.953125 -2.71875 C 4.117188 -2.25 4.382812 -1.910156 4.75 -1.703125 C 5.113281 -1.503906 5.644531 -1.40625 6.34375 -1.40625 C 7.375 -1.40625 8.179688 -1.753906 8.765625 -2.453125 C 9.359375 -3.160156 9.65625 -4.132812 9.65625 -5.375 L 9.65625 -12.796875 L 11.796875 -12.796875 L 11.796875 -2.734375 C 11.796875 -1.242188 11.816406 -0.332031 11.859375 0 L 9.84375 0 C 9.84375 -0.0390625 9.835938 -0.144531 9.828125 -0.3125 C 9.816406 -0.488281 9.804688 -0.6875 9.796875 -0.90625 C 9.785156 -1.132812 9.769531 -1.5625 9.75 -2.1875 L 9.71875 -2.1875 C 9.226562 -1.300781 8.660156 -0.675781 8.015625 -0.3125 C 7.378906 0.0507812 6.582031 0.234375 5.625 0.234375 C 4.226562 0.234375 3.203125 -0.113281 2.546875 -0.8125 C 1.898438 -1.507812 1.578125 -2.660156 1.578125 -4.265625 L 1.578125 -12.796875 Z M 3.71875 -12.796875 "/></g></g></g><g fill="rgb(97.648621%, 65.879822%, 14.898682%)" fill-opacity="1"><g transform="translate(125.907232, 207.113132)"><g/></g></g><g fill="rgb(97.648621%, 65.879822%, 14.898682%)" fill-opacity="1"><g transform="translate(132.633478, 207.113132)"><g><path d="M 12.453125 -5.421875 C 12.453125 -3.671875 11.925781 -2.289062 10.875 -1.28125 C 9.832031 -0.269531 8.390625 0.234375 6.546875 0.234375 C 4.984375 0.234375 3.722656 -0.101562 2.765625 -0.78125 C 1.816406 -1.457031 1.21875 -2.4375 0.96875 -3.71875 L 3.125 -3.96875 C 3.570312 -2.320312 4.726562 -1.5 6.59375 -1.5 C 7.726562 -1.5 8.617188 -1.84375 9.265625 -2.53125 C 9.910156 -3.226562 10.234375 -4.175781 10.234375 -5.375 C 10.234375 -6.425781 9.910156 -7.273438 9.265625 -7.921875 C 8.617188 -8.566406 7.742188 -8.890625 6.640625 -8.890625 C 6.054688 -8.890625 5.515625 -8.796875 5.015625 -8.609375 C 4.523438 -8.429688 4.03125 -8.128906 3.53125 -7.703125 L 1.453125 -7.703125 L 2.015625 -16.65625 L 11.484375 -16.65625 L 11.484375 -14.859375 L 3.953125 -14.859375 L 3.625 -9.5625 C 4.550781 -10.269531 5.703125 -10.625 7.078125 -10.625 C 8.710938 -10.625 10.015625 -10.144531 10.984375 -9.1875 C 11.960938 -8.226562 12.453125 -6.972656 12.453125 -5.421875 Z M 12.453125 -5.421875 "/></g></g></g></svg>