<svg xmlns="http://www.w3.org/2000/svg" xmlns:xlink="http://www.w3.org/1999/xlink" width="300" zoomAndPan="magnify" viewBox="0 0 224.87999 225" height="300" preserveAspectRatio="xMidYMid meet" version="1.0"><defs><clipPath id="id1"><path d="M 11.242188 88 L 139 88 L 139 224.9375 L 11.242188 224.9375 Z M 11.242188 88 " clip-rule="nonzero"/></clipPath><clipPath id="id2"><path d="M 201 97 L 213.636719 97 L 213.636719 110 L 201 110 Z M 201 97 " clip-rule="nonzero"/></clipPath><clipPath id="id3"><path d="M 126 0.0585938 L 140 0.0585938 L 140 14 L 126 14 Z M 126 0.0585938 " clip-rule="nonzero"/></clipPath></defs><g clip-path="url(#id1)"><path fill="rgb(17.649841%, 0%, 25.489807%)" d="M 138.507812 149.449219 L 123.039062 158.644531 L 94.042969 175.882812 L 78.230469 185.269531 L 54.871094 199.164062 L 44.320312 205.421875 L 44.308594 205.433594 L 30.027344 213.933594 L 11.460938 224.953125 L 17.476562 210.839844 L 20.210938 204.433594 L 26.488281 189.679688 L 29.515625 182.535156 L 37.054688 164.867188 L 40.25 157.339844 L 49.667969 135.25 L 53.464844 126.304688 L 60.855469 108.984375 L 64.109375 101.324219 L 69.367188 88.992188 L 138.507812 149.449219 " fill-opacity="1" fill-rule="nonzero"/></g><path fill="rgb(97.648621%, 65.879822%, 14.898682%)" d="M 190.761719 129.558594 L 128.046875 128.945312 L 189.707031 117.453125 Z M 190.761719 129.558594 " fill-opacity="1" fill-rule="nonzero"/><path fill="rgb(97.648621%, 65.879822%, 14.898682%)" d="M 200.488281 85.398438 L 116.714844 119.039062 L 195.207031 74.449219 Z M 200.488281 85.398438 " fill-opacity="1" fill-rule="nonzero"/><path fill="rgb(97.648621%, 65.879822%, 14.898682%)" d="M 94.269531 33.984375 L 91.085938 96.621094 L 82.132812 34.539062 Z M 94.269531 33.984375 " fill-opacity="1" fill-rule="nonzero"/><path fill="rgb(97.648621%, 65.879822%, 14.898682%)" d="M 136.164062 22.796875 L 102.410156 106.539062 L 124.601562 19.023438 Z M 136.164062 22.796875 " fill-opacity="1" fill-rule="nonzero"/><path fill="rgb(97.648621%, 65.879822%, 14.898682%)" d="M 183.566406 42.667969 L 108.734375 112.058594 L 174.78125 34.269531 Z M 183.566406 42.667969 " fill-opacity="1" fill-rule="nonzero"/><path fill="rgb(32.548523%, 0%, 45.489502%)" d="M 44.308594 205.433594 L 30.027344 213.933594 L 17.476562 210.839844 L 20.210938 204.433594 L 44.308594 205.433594 " fill-opacity="1" fill-rule="nonzero"/><path fill="rgb(32.548523%, 0%, 45.489502%)" d="M 78.230469 185.269531 L 54.871094 199.164062 L 26.488281 189.679688 L 29.515625 182.535156 L 78.230469 185.269531 " fill-opacity="1" fill-rule="nonzero"/><path fill="rgb(32.548523%, 0%, 45.489502%)" d="M 123.039062 158.644531 L 94.042969 175.882812 L 37.054688 164.867188 L 40.25 157.339844 L 123.039062 158.644531 " fill-opacity="1" fill-rule="nonzero"/><path fill="rgb(32.548523%, 0%, 45.489502%)" d="M 136.039062 147.296875 L 49.667969 135.25 L 53.464844 126.304688 L 106.082031 121.089844 L 136.039062 147.296875 " fill-opacity="1" fill-rule="nonzero"/><path fill="rgb(32.548523%, 0%, 45.489502%)" d="M 98.203125 114.210938 L 60.855469 108.984375 L 64.109375 101.324219 L 81.507812 99.589844 L 98.203125 114.210938 " fill-opacity="1" fill-rule="nonzero"/><path fill="rgb(97.648621%, 65.879822%, 14.898682%)" d="M 187.964844 64.40625 L 187.441406 59.625 L 183.214844 57.34375 L 187.601562 55.375 L 188.460938 50.648438 L 191.691406 54.21875 L 196.453125 53.570312 L 194.0625 57.742188 L 196.148438 62.070312 L 191.441406 61.085938 L 187.964844 64.40625 " fill-opacity="1" fill-rule="nonzero"/><path fill="rgb(97.648621%, 65.879822%, 14.898682%)" d="M 175.597656 107.421875 L 176.175781 105.257812 L 174.710938 103.546875 L 176.945312 103.433594 L 178.125 101.515625 L 178.929688 103.613281 L 181.105469 104.125 L 179.371094 105.539062 L 179.550781 107.785156 L 177.660156 106.5625 L 175.597656 107.421875 " fill-opacity="1" fill-rule="nonzero"/><path fill="rgb(97.648621%, 65.879822%, 14.898682%)" d="M 136.515625 55.304688 L 134.746094 48.335938 L 128.003906 45.839844 L 134.078125 42 L 134.359375 34.8125 L 139.890625 39.414062 L 146.816406 37.453125 L 144.15625 44.140625 L 148.144531 50.113281 L 140.96875 49.648438 L 136.515625 55.304688 " fill-opacity="1" fill-rule="nonzero"/><path fill="rgb(97.648621%, 65.879822%, 14.898682%)" d="M 176.003906 25.246094 L 175.382812 22.761719 L 172.976562 21.867188 L 175.144531 20.496094 L 175.257812 17.933594 L 177.21875 19.578125 L 179.6875 18.886719 L 178.738281 21.265625 L 180.164062 23.398438 L 177.601562 23.226562 L 176.003906 25.246094 " fill-opacity="1" fill-rule="nonzero"/><path fill="rgb(97.648621%, 65.879822%, 14.898682%)" d="M 101.84375 58.171875 L 100.109375 53.992188 L 95.675781 53.0625 L 99.097656 50.113281 L 98.621094 45.613281 L 102.488281 47.960938 L 106.625 46.113281 L 105.570312 50.523438 L 108.609375 53.878906 L 104.097656 54.25 L 101.84375 58.171875 " fill-opacity="1" fill-rule="nonzero"/><g clip-path="url(#id2)"><path fill="rgb(97.648621%, 65.879822%, 14.898682%)" d="M 203.410156 108.429688 L 204.453125 104.554688 L 201.835938 101.492188 L 205.847656 101.277344 L 207.945312 97.855469 L 209.398438 101.597656 L 213.308594 102.535156 L 210.191406 105.0625 L 210.507812 109.078125 L 207.128906 106.890625 L 203.410156 108.429688 " fill-opacity="1" fill-rule="nonzero"/></g><g clip-path="url(#id3)"><path fill="rgb(97.648621%, 65.879822%, 14.898682%)" d="M 135.4375 13.082031 L 131.878906 10.191406 L 127.480469 11.484375 L 129.125 7.210938 L 126.539062 3.4375 L 131.109375 3.675781 L 133.90625 0.046875 L 135.085938 4.480469 L 139.40625 6.011719 L 135.5625 8.503906 L 135.4375 13.082031 " fill-opacity="1" fill-rule="nonzero"/></g><path fill="rgb(97.648621%, 65.879822%, 14.898682%)" d="M 105.164062 27.875 L 105.855469 25.269531 L 104.097656 23.226562 L 106.785156 23.082031 L 108.1875 20.792969 L 109.164062 23.296875 L 111.78125 23.917969 L 109.6875 25.621094 L 109.902344 28.304688 L 107.644531 26.84375 L 105.164062 27.875 " fill-opacity="1" fill-rule="nonzero"/><path fill="rgb(97.648621%, 65.879822%, 14.898682%)" d="M 160.976562 82.078125 L 161.667969 79.480469 L 159.921875 77.429688 L 162.605469 77.292969 L 164.011719 74.992188 L 164.976562 77.511719 L 167.59375 78.121094 L 165.507812 79.820312 L 165.722656 82.507812 L 163.457031 81.046875 L 160.976562 82.078125 " fill-opacity="1" fill-rule="nonzero"/></svg>