<svg xmlns="http://www.w3.org/2000/svg" xmlns:xlink="http://www.w3.org/1999/xlink" width="300" zoomAndPan="magnify" viewBox="0 0 224.87999 225" height="300" preserveAspectRatio="xMidYMid meet" version="1.0"><defs><clipPath id="id1"><path d="M 0 0.0585938 L 224.761719 0.0585938 L 224.761719 224.9375 L 0 224.9375 Z M 0 0.0585938 " clip-rule="nonzero"/></clipPath><clipPath id="id2"><path d="M 59.722656 121.023438 L 163.160156 121.023438 L 163.160156 205.664062 L 59.722656 205.664062 Z M 59.722656 121.023438 " clip-rule="nonzero"/></clipPath><clipPath id="id3"><path d="M 77 136 L 148 136 L 148 205.503906 L 77 205.503906 Z M 77 136 " clip-rule="nonzero"/></clipPath></defs><g clip-path="url(#id1)"><path fill="rgb(97.648621%, 65.879822%, 14.898682%)" d="M 224.878906 112.5 C 224.878906 114.339844 224.835938 116.179688 224.746094 118.015625 C 224.652344 119.855469 224.519531 121.691406 224.339844 123.519531 C 224.15625 125.351562 223.933594 127.179688 223.664062 129 C 223.394531 130.820312 223.078125 132.632812 222.71875 134.4375 C 222.359375 136.242188 221.957031 138.035156 221.511719 139.820312 C 221.0625 141.605469 220.574219 143.378906 220.039062 145.140625 C 219.503906 146.902344 218.925781 148.648438 218.308594 150.378906 C 217.6875 152.113281 217.023438 153.828125 216.320312 155.527344 C 215.617188 157.230469 214.871094 158.910156 214.085938 160.574219 C 213.296875 162.238281 212.46875 163.882812 211.601562 165.503906 C 210.734375 167.125 209.828125 168.726562 208.882812 170.304688 C 207.9375 171.882812 206.953125 173.4375 205.929688 174.96875 C 204.90625 176.5 203.847656 178.003906 202.753906 179.480469 C 201.65625 180.957031 200.523438 182.410156 199.355469 183.832031 C 198.191406 185.253906 196.988281 186.648438 195.753906 188.011719 C 194.515625 189.375 193.25 190.707031 191.945312 192.007812 C 190.644531 193.308594 189.3125 194.578125 187.949219 195.8125 C 186.585938 197.046875 185.195312 198.25 183.769531 199.417969 C 182.347656 200.585938 180.898438 201.714844 179.421875 202.8125 C 177.941406 203.910156 176.4375 204.96875 174.910156 205.992188 C 173.378906 207.011719 171.824219 207.996094 170.246094 208.941406 C 168.667969 209.890625 167.066406 210.796875 165.445312 211.664062 C 163.820312 212.53125 162.179688 213.359375 160.515625 214.144531 C 158.851562 214.929688 157.167969 215.675781 155.46875 216.382812 C 153.769531 217.085938 152.050781 217.746094 150.320312 218.367188 C 148.585938 218.988281 146.839844 219.5625 145.078125 220.097656 C 143.320312 220.632812 141.546875 221.125 139.761719 221.570312 C 137.976562 222.015625 136.179688 222.421875 134.375 222.78125 C 132.570312 223.136719 130.757812 223.453125 128.9375 223.722656 C 127.117188 223.992188 125.292969 224.21875 123.460938 224.398438 C 121.628906 224.578125 119.796875 224.714844 117.957031 224.804688 C 116.121094 224.894531 114.28125 224.941406 112.441406 224.941406 C 110.601562 224.941406 108.761719 224.894531 106.921875 224.804688 C 105.085938 224.714844 103.25 224.578125 101.417969 224.398438 C 99.585938 224.21875 97.761719 223.992188 95.941406 223.722656 C 94.121094 223.453125 92.308594 223.136719 90.503906 222.78125 C 88.699219 222.421875 86.90625 222.015625 85.121094 221.570312 C 83.335938 221.125 81.5625 220.632812 79.800781 220.097656 C 78.039062 219.5625 76.292969 218.988281 74.558594 218.367188 C 72.828125 217.746094 71.109375 217.085938 69.410156 216.382812 C 67.710938 215.675781 66.027344 214.929688 64.367188 214.144531 C 62.703125 213.359375 61.058594 212.53125 59.4375 211.664062 C 57.8125 210.796875 56.210938 209.890625 54.632812 208.941406 C 53.054688 207.996094 51.5 207.011719 49.972656 205.992188 C 48.441406 204.96875 46.9375 203.910156 45.460938 202.8125 C 43.980469 201.714844 42.53125 200.585938 41.109375 199.417969 C 39.6875 198.25 38.292969 197.046875 36.929688 195.8125 C 35.566406 194.578125 34.234375 193.308594 32.933594 192.007812 C 31.632812 190.707031 30.363281 189.375 29.128906 188.011719 C 27.890625 186.648438 26.691406 185.253906 25.523438 183.832031 C 24.355469 182.410156 23.222656 180.957031 22.128906 179.480469 C 21.03125 178.003906 19.972656 176.5 18.949219 174.96875 C 17.925781 173.4375 16.941406 171.882812 15.996094 170.304688 C 15.050781 168.726562 14.144531 167.125 13.277344 165.503906 C 12.410156 163.882812 11.582031 162.238281 10.796875 160.574219 C 10.007812 158.910156 9.261719 157.230469 8.558594 155.527344 C 7.855469 153.828125 7.191406 152.113281 6.574219 150.378906 C 5.953125 148.648438 5.375 146.902344 4.839844 145.140625 C 4.308594 143.378906 3.816406 141.605469 3.371094 139.820312 C 2.921875 138.035156 2.519531 136.242188 2.160156 134.4375 C 1.800781 132.632812 1.488281 130.820312 1.21875 129 C 0.945312 127.179688 0.722656 125.351562 0.542969 123.519531 C 0.359375 121.691406 0.226562 119.855469 0.136719 118.015625 C 0.046875 116.179688 0 114.339844 0 112.5 C 0 110.660156 0.046875 108.820312 0.136719 106.984375 C 0.226562 105.144531 0.359375 103.308594 0.542969 101.480469 C 0.722656 99.648438 0.945312 97.820312 1.21875 96 C 1.488281 94.179688 1.800781 92.367188 2.160156 90.5625 C 2.519531 88.757812 2.921875 86.964844 3.371094 85.179688 C 3.816406 83.394531 4.308594 81.621094 4.839844 79.859375 C 5.375 78.097656 5.953125 76.351562 6.574219 74.621094 C 7.191406 72.886719 7.855469 71.171875 8.558594 69.472656 C 9.261719 67.769531 10.007812 66.089844 10.796875 64.425781 C 11.582031 62.761719 12.410156 61.117188 13.277344 59.496094 C 14.144531 57.875 15.050781 56.273438 15.996094 54.695312 C 16.941406 53.117188 17.925781 51.5625 18.949219 50.03125 C 19.972656 48.5 21.03125 46.996094 22.128906 45.519531 C 23.222656 44.042969 24.355469 42.589844 25.523438 41.167969 C 26.691406 39.746094 27.890625 38.351562 29.128906 36.988281 C 30.363281 35.625 31.632812 34.292969 32.933594 32.992188 C 34.234375 31.691406 35.566406 30.421875 36.929688 29.1875 C 38.292969 27.953125 39.6875 26.75 41.109375 25.582031 C 42.53125 24.414062 43.980469 23.285156 45.460938 22.1875 C 46.9375 21.089844 48.441406 20.03125 49.972656 19.007812 C 51.5 17.988281 53.054688 17.003906 54.632812 16.058594 C 56.210938 15.109375 57.8125 14.203125 59.4375 13.335938 C 61.058594 12.46875 62.703125 11.640625 64.367188 10.855469 C 66.027344 10.070312 67.710938 9.324219 69.410156 8.617188 C 71.109375 7.914062 72.828125 7.253906 74.558594 6.632812 C 76.292969 6.011719 78.039062 5.4375 79.800781 4.902344 C 81.5625 4.367188 83.335938 3.875 85.121094 3.429688 C 86.90625 2.984375 88.699219 2.578125 90.503906 2.21875 C 92.308594 1.863281 94.121094 1.546875 95.941406 1.277344 C 97.761719 1.007812 99.585938 0.78125 101.417969 0.601562 C 103.25 0.421875 105.085938 0.285156 106.921875 0.195312 C 108.761719 0.105469 110.601562 0.0585938 112.441406 0.0585938 C 114.28125 0.0585938 116.121094 0.105469 117.957031 0.195312 C 119.796875 0.285156 121.628906 0.421875 123.460938 0.601562 C 125.292969 0.78125 127.117188 1.007812 128.9375 1.277344 C 130.757812 1.546875 132.570312 1.863281 134.375 2.21875 C 136.179688 2.578125 137.976562 2.984375 139.761719 3.429688 C 141.546875 3.875 143.320312 4.367188 145.078125 4.902344 C 146.839844 5.4375 148.585938 6.011719 150.320312 6.632812 C 152.050781 7.253906 153.769531 7.914062 155.46875 8.617188 C 157.167969 9.324219 158.851562 10.070312 160.515625 10.855469 C 162.179688 11.640625 163.820312 12.46875 165.445312 13.335938 C 167.066406 14.203125 168.667969 15.109375 170.246094 16.058594 C 171.824219 17.003906 173.378906 17.988281 174.910156 19.007812 C 176.4375 20.03125 177.941406 21.089844 179.421875 22.1875 C 180.898438 23.285156 182.347656 24.414062 183.769531 25.582031 C 185.195312 26.75 186.585938 27.953125 187.949219 29.1875 C 189.3125 30.421875 190.644531 31.691406 191.945312 32.992188 C 193.25 34.292969 194.515625 35.625 195.753906 36.988281 C 196.988281 38.351562 198.191406 39.746094 199.355469 41.167969 C 200.523438 42.589844 201.65625 44.042969 202.753906 45.519531 C 203.847656 46.996094 204.90625 48.5 205.929688 50.03125 C 206.953125 51.5625 207.9375 53.117188 208.882812 54.695312 C 209.828125 56.273438 210.734375 57.875 211.601562 59.496094 C 212.46875 61.117188 213.296875 62.761719 214.085938 64.425781 C 214.871094 66.089844 215.617188 67.769531 216.320312 69.472656 C 217.023438 71.171875 217.6875 72.886719 218.308594 74.621094 C 218.925781 76.351562 219.503906 78.097656 220.039062 79.859375 C 220.574219 81.621094 221.0625 83.394531 221.511719 85.179688 C 221.957031 86.964844 222.359375 88.757812 222.71875 90.5625 C 223.078125 92.367188 223.394531 94.179688 223.664062 96 C 223.933594 97.820312 224.15625 99.648438 224.339844 101.480469 C 224.519531 103.308594 224.652344 105.144531 224.746094 106.984375 C 224.835938 108.820312 224.878906 110.660156 224.878906 112.5 Z M 224.878906 112.5 " fill-opacity="1" fill-rule="nonzero"/></g><path fill="rgb(32.548523%, 0%, 45.489502%)" d="M 65.683594 147.613281 C 65.964844 148.730469 72.980469 174.964844 112.441406 174.964844 C 151.90625 174.964844 158.914062 148.730469 159.195312 147.613281 C 159.539062 146.257812 158.925781 144.851562 157.714844 144.152344 C 156.496094 143.457031 154.972656 143.664062 153.96875 144.632812 C 153.847656 144.75 141.761719 156.226562 112.441406 156.226562 C 83.117188 156.226562 71.023438 144.75 70.914062 144.640625 C 70.3125 144.046875 69.511719 143.734375 68.714844 143.734375 C 68.1875 143.734375 67.65625 143.863281 67.175781 144.132812 C 65.953125 144.832031 65.339844 146.25 65.683594 147.613281 Z M 65.683594 147.613281 " fill-opacity="1" fill-rule="nonzero"/><path fill="rgb(32.548523%, 0%, 45.489502%)" d="M 90.578125 84.390625 C 90.578125 85.105469 90.550781 85.820312 90.5 86.53125 C 90.453125 87.246094 90.375 87.953125 90.277344 88.65625 C 90.175781 89.359375 90.050781 90.050781 89.902344 90.738281 C 89.753906 91.421875 89.582031 92.09375 89.386719 92.757812 C 89.191406 93.417969 88.972656 94.066406 88.734375 94.695312 C 88.492188 95.328125 88.230469 95.941406 87.945312 96.535156 C 87.660156 97.132812 87.355469 97.707031 87.03125 98.261719 C 86.707031 98.8125 86.363281 99.34375 86.003906 99.851562 C 85.640625 100.355469 85.261719 100.835938 84.867188 101.289062 C 84.472656 101.746094 84.0625 102.171875 83.636719 102.570312 C 83.210938 102.964844 82.773438 103.335938 82.320312 103.671875 C 81.871094 104.007812 81.410156 104.316406 80.9375 104.589844 C 80.464844 104.863281 79.984375 105.105469 79.492188 105.3125 C 79.003906 105.519531 78.507812 105.695312 78.007812 105.832031 C 77.503906 105.972656 77 106.078125 76.492188 106.148438 C 75.980469 106.21875 75.472656 106.253906 74.960938 106.253906 C 74.449219 106.253906 73.9375 106.21875 73.429688 106.148438 C 72.921875 106.078125 72.414062 105.972656 71.914062 105.832031 C 71.410156 105.695312 70.917969 105.519531 70.425781 105.3125 C 69.9375 105.105469 69.457031 104.863281 68.984375 104.589844 C 68.511719 104.316406 68.050781 104.007812 67.597656 103.671875 C 67.148438 103.335938 66.710938 102.964844 66.285156 102.570312 C 65.859375 102.171875 65.449219 101.746094 65.054688 101.289062 C 64.65625 100.835938 64.277344 100.355469 63.917969 99.851562 C 63.554688 99.34375 63.210938 98.8125 62.886719 98.261719 C 62.5625 97.707031 62.257812 97.132812 61.976562 96.535156 C 61.691406 95.941406 61.429688 95.328125 61.1875 94.695312 C 60.945312 94.066406 60.726562 93.417969 60.53125 92.757812 C 60.335938 92.09375 60.164062 91.421875 60.015625 90.738281 C 59.867188 90.050781 59.742188 89.359375 59.644531 88.65625 C 59.542969 87.953125 59.46875 87.246094 59.417969 86.53125 C 59.367188 85.820312 59.34375 85.105469 59.34375 84.390625 C 59.34375 83.675781 59.367188 82.960938 59.417969 82.246094 C 59.46875 81.535156 59.542969 80.828125 59.644531 80.125 C 59.742188 79.421875 59.867188 78.730469 60.015625 78.042969 C 60.164062 77.359375 60.335938 76.683594 60.53125 76.023438 C 60.726562 75.363281 60.945312 74.714844 61.1875 74.082031 C 61.429688 73.453125 61.691406 72.839844 61.976562 72.242188 C 62.257812 71.648438 62.5625 71.074219 62.886719 70.519531 C 63.210938 69.964844 63.554688 69.4375 63.917969 68.929688 C 64.277344 68.425781 64.65625 67.945312 65.054688 67.488281 C 65.449219 67.035156 65.859375 66.609375 66.285156 66.210938 C 66.710938 65.8125 67.148438 65.445312 67.597656 65.109375 C 68.050781 64.769531 68.511719 64.464844 68.984375 64.191406 C 69.457031 63.917969 69.9375 63.675781 70.425781 63.46875 C 70.917969 63.261719 71.410156 63.085938 71.914062 62.945312 C 72.414062 62.808594 72.921875 62.703125 73.429688 62.632812 C 73.9375 62.5625 74.449219 62.527344 74.960938 62.527344 C 75.472656 62.527344 75.980469 62.5625 76.492188 62.632812 C 77 62.703125 77.503906 62.808594 78.007812 62.945312 C 78.507812 63.085938 79.003906 63.261719 79.492188 63.46875 C 79.984375 63.675781 80.464844 63.917969 80.9375 64.191406 C 81.410156 64.464844 81.871094 64.769531 82.320312 65.109375 C 82.773438 65.445312 83.210938 65.8125 83.636719 66.210938 C 84.0625 66.609375 84.472656 67.035156 84.867188 67.488281 C 85.261719 67.945312 85.640625 68.425781 86.003906 68.929688 C 86.363281 69.4375 86.707031 69.964844 87.03125 70.519531 C 87.355469 71.074219 87.660156 71.648438 87.945312 72.242188 C 88.230469 72.839844 88.492188 73.453125 88.734375 74.082031 C 88.972656 74.714844 89.191406 75.363281 89.386719 76.023438 C 89.582031 76.683594 89.753906 77.359375 89.902344 78.042969 C 90.050781 78.730469 90.175781 79.421875 90.277344 80.125 C 90.375 80.828125 90.453125 81.535156 90.5 82.246094 C 90.550781 82.960938 90.578125 83.675781 90.578125 84.390625 Z M 90.578125 84.390625 " fill-opacity="1" fill-rule="nonzero"/><path fill="rgb(32.548523%, 0%, 45.489502%)" d="M 165.535156 84.390625 C 165.535156 85.105469 165.511719 85.820312 165.460938 86.53125 C 165.410156 87.246094 165.335938 87.953125 165.238281 88.65625 C 165.136719 89.359375 165.011719 90.050781 164.863281 90.738281 C 164.714844 91.421875 164.542969 92.09375 164.347656 92.757812 C 164.152344 93.417969 163.933594 94.066406 163.691406 94.695312 C 163.453125 95.328125 163.1875 95.941406 162.90625 96.535156 C 162.621094 97.132812 162.316406 97.707031 161.992188 98.261719 C 161.667969 98.8125 161.324219 99.34375 160.960938 99.851562 C 160.601562 100.355469 160.222656 100.835938 159.828125 101.289062 C 159.433594 101.746094 159.019531 102.171875 158.597656 102.570312 C 158.171875 102.964844 157.734375 103.335938 157.28125 103.671875 C 156.832031 104.007812 156.367188 104.316406 155.894531 104.589844 C 155.421875 104.863281 154.941406 105.105469 154.453125 105.3125 C 153.964844 105.519531 153.46875 105.695312 152.964844 105.832031 C 152.464844 105.972656 151.960938 106.078125 151.449219 106.148438 C 150.941406 106.21875 150.429688 106.253906 149.921875 106.253906 C 149.410156 106.253906 148.898438 106.21875 148.390625 106.148438 C 147.878906 106.078125 147.375 105.972656 146.875 105.832031 C 146.371094 105.695312 145.875 105.519531 145.386719 105.3125 C 144.898438 105.105469 144.417969 104.863281 143.945312 104.589844 C 143.472656 104.316406 143.007812 104.007812 142.558594 103.671875 C 142.105469 103.335938 141.667969 102.964844 141.242188 102.570312 C 140.820312 102.171875 140.410156 101.746094 140.011719 101.289062 C 139.617188 100.835938 139.238281 100.355469 138.878906 99.851562 C 138.515625 99.34375 138.171875 98.8125 137.847656 98.261719 C 137.523438 97.707031 137.21875 97.132812 136.933594 96.535156 C 136.652344 95.941406 136.386719 95.328125 136.148438 94.695312 C 135.90625 94.066406 135.6875 93.417969 135.492188 92.757812 C 135.296875 92.09375 135.125 91.421875 134.976562 90.738281 C 134.828125 90.050781 134.703125 89.359375 134.601562 88.65625 C 134.503906 87.953125 134.429688 87.246094 134.378906 86.53125 C 134.328125 85.820312 134.304688 85.105469 134.304688 84.390625 C 134.304688 83.675781 134.328125 82.960938 134.378906 82.246094 C 134.429688 81.535156 134.503906 80.828125 134.601562 80.125 C 134.703125 79.421875 134.828125 78.730469 134.976562 78.042969 C 135.125 77.359375 135.296875 76.683594 135.492188 76.023438 C 135.6875 75.363281 135.90625 74.714844 136.148438 74.082031 C 136.386719 73.453125 136.652344 72.839844 136.933594 72.242188 C 137.21875 71.648438 137.523438 71.074219 137.847656 70.519531 C 138.171875 69.964844 138.515625 69.4375 138.878906 68.929688 C 139.238281 68.425781 139.617188 67.945312 140.011719 67.488281 C 140.410156 67.035156 140.820312 66.609375 141.242188 66.210938 C 141.667969 65.8125 142.105469 65.445312 142.558594 65.109375 C 143.007812 64.769531 143.472656 64.464844 143.945312 64.191406 C 144.417969 63.917969 144.898438 63.675781 145.386719 63.46875 C 145.875 63.261719 146.371094 63.085938 146.875 62.945312 C 147.375 62.808594 147.878906 62.703125 148.390625 62.632812 C 148.898438 62.5625 149.410156 62.527344 149.921875 62.527344 C 150.429688 62.527344 150.941406 62.5625 151.449219 62.632812 C 151.960938 62.703125 152.464844 62.808594 152.964844 62.945312 C 153.46875 63.085938 153.964844 63.261719 154.453125 63.46875 C 154.941406 63.675781 155.421875 63.917969 155.894531 64.191406 C 156.367188 64.464844 156.832031 64.769531 157.28125 65.109375 C 157.734375 65.445312 158.171875 65.8125 158.597656 66.210938 C 159.019531 66.609375 159.433594 67.035156 159.828125 67.488281 C 160.222656 67.945312 160.601562 68.425781 160.960938 68.929688 C 161.324219 69.4375 161.667969 69.964844 161.992188 70.519531 C 162.316406 71.074219 162.621094 71.648438 162.90625 72.242188 C 163.1875 72.839844 163.453125 73.453125 163.691406 74.082031 C 163.933594 74.714844 164.152344 75.363281 164.347656 76.023438 C 164.542969 76.683594 164.714844 77.359375 164.863281 78.042969 C 165.011719 78.730469 165.136719 79.421875 165.238281 80.125 C 165.335938 80.828125 165.410156 81.535156 165.460938 82.246094 C 165.511719 82.960938 165.535156 83.675781 165.535156 84.390625 Z M 165.535156 84.390625 " fill-opacity="1" fill-rule="nonzero"/><g clip-path="url(#id2)"><path fill="rgb(97.648621%, 65.879822%, 14.898682%)" d="M 134.292969 205.664062 C 146.921875 192.808594 162.339844 176.183594 163.128906 157.128906 C 163.492188 148.433594 160.683594 139.953125 154.527344 133.6875 C 148.535156 127.585938 140.277344 123.980469 131.949219 122.421875 C 121.6875 120.503906 111.070312 120.988281 100.691406 121.371094 C 91.195312 121.726562 81.25 122.703125 72.941406 127.707031 C 65.664062 132.082031 60.695312 139.070312 59.855469 147.585938 C 59.046875 155.757812 62.023438 164.089844 67.511719 170.152344 C 80.226562 184.199219 101.394531 184.824219 118.367188 179.507812 C 119.691406 179.09375 121 178.640625 122.300781 178.164062 C 129.15625 183.472656 135.253906 197.117188 134.292969 205.664062 " fill-opacity="1" fill-rule="nonzero"/></g><path fill="rgb(97.648621%, 65.879822%, 14.898682%)" d="M 73.363281 138.8125 L 72.777344 138.859375 L 72.785156 138.972656 L 73.375 138.925781 L 73.363281 138.8125 " fill-opacity="1" fill-rule="nonzero"/><path fill="rgb(97.648621%, 65.879822%, 14.898682%)" d="M 94.101562 136.007812 L 93.425781 135.988281 L 93.433594 136.15625 L 94.105469 136.132812 L 94.101562 136.007812 " fill-opacity="1" fill-rule="nonzero"/><path fill="rgb(97.648621%, 65.879822%, 14.898682%)" d="M 127.84375 133.714844 L 127.019531 133.648438 L 127.007812 133.851562 L 127.835938 133.847656 L 127.84375 133.714844 " fill-opacity="1" fill-rule="nonzero"/><path fill="rgb(97.648621%, 65.879822%, 14.898682%)" d="M 134.4375 132.449219 L 133.613281 132.367188 L 133.609375 132.5625 L 134.433594 132.53125 L 134.4375 132.449219 " fill-opacity="1" fill-rule="nonzero"/><path fill="rgb(97.648621%, 65.879822%, 14.898682%)" d="M 97.214844 132.402344 L 96.546875 132.375 L 96.542969 132.472656 L 97.210938 132.554688 L 97.214844 132.402344 " fill-opacity="1" fill-rule="nonzero"/><path fill="rgb(97.648621%, 65.879822%, 14.898682%)" d="M 80.46875 133.535156 L 79.8125 133.636719 L 79.824219 133.777344 L 80.480469 133.691406 L 80.46875 133.535156 " fill-opacity="1" fill-rule="nonzero"/><path fill="rgb(97.648621%, 65.879822%, 14.898682%)" d="M 110.859375 128.617188 L 110.222656 128.652344 L 110.246094 128.816406 L 110.878906 128.75 L 110.859375 128.617188 " fill-opacity="1" fill-rule="nonzero"/><path fill="rgb(97.648621%, 65.879822%, 14.898682%)" d="M 85.960938 125.253906 L 85.386719 125.210938 L 85.378906 125.28125 L 85.945312 125.378906 L 85.960938 125.253906 " fill-opacity="1" fill-rule="nonzero"/><path fill="rgb(97.648621%, 65.879822%, 14.898682%)" d="M 117.65625 122.042969 L 116.773438 121.910156 L 116.761719 122.125 L 117.644531 122.214844 L 117.65625 122.042969 " fill-opacity="1" fill-rule="nonzero"/><path fill="rgb(97.648621%, 65.879822%, 14.898682%)" d="M 96.425781 127.585938 L 95.574219 127.566406 L 95.566406 127.695312 L 96.414062 127.753906 L 96.425781 127.585938 " fill-opacity="1" fill-rule="nonzero"/><path fill="rgb(97.648621%, 65.879822%, 14.898682%)" d="M 89.3125 133.222656 L 88.882812 133.175781 L 88.871094 133.253906 L 89.300781 133.335938 L 89.3125 133.222656 " fill-opacity="1" fill-rule="nonzero"/><path fill="rgb(97.648621%, 65.879822%, 14.898682%)" d="M 126.683594 132.308594 L 126.28125 132.324219 L 126.28125 132.375 L 126.679688 132.375 L 126.683594 132.308594 " fill-opacity="1" fill-rule="nonzero"/><path fill="rgb(97.648621%, 65.879822%, 14.898682%)" d="M 103.460938 134.171875 L 102.945312 134.128906 L 102.941406 134.214844 L 103.453125 134.265625 L 103.460938 134.171875 " fill-opacity="1" fill-rule="nonzero"/><path fill="rgb(97.648621%, 65.879822%, 14.898682%)" d="M 129.414062 132.636719 L 128.640625 132.683594 L 128.660156 132.828125 L 129.425781 132.742188 L 129.414062 132.636719 " fill-opacity="1" fill-rule="nonzero"/><path fill="rgb(97.648621%, 65.879822%, 14.898682%)" d="M 69.738281 133.453125 L 69.125 133.4375 L 69.125 133.515625 L 69.734375 133.566406 L 69.738281 133.453125 " fill-opacity="1" fill-rule="nonzero"/><path fill="rgb(97.648621%, 65.879822%, 14.898682%)" d="M 127.148438 124.519531 L 126.308594 124.542969 L 126.320312 124.734375 L 127.160156 124.691406 L 127.148438 124.519531 " fill-opacity="1" fill-rule="nonzero"/><path fill="rgb(97.648621%, 65.879822%, 14.898682%)" d="M 128.476562 122.449219 L 127.792969 122.523438 L 127.796875 122.59375 L 128.484375 122.527344 L 128.476562 122.449219 " fill-opacity="1" fill-rule="nonzero"/><path fill="rgb(97.648621%, 65.879822%, 14.898682%)" d="M 138.6875 124.683594 L 138.144531 124.710938 L 138.144531 124.792969 L 138.6875 124.828125 L 138.6875 124.683594 " fill-opacity="1" fill-rule="nonzero"/><path fill="rgb(97.648621%, 65.879822%, 14.898682%)" d="M 118.128906 133.1875 L 117.648438 133.164062 L 117.640625 133.253906 L 118.125 133.25 L 118.128906 133.1875 " fill-opacity="1" fill-rule="nonzero"/><path fill="rgb(97.648621%, 65.879822%, 14.898682%)" d="M 110.449219 145 L 109.796875 145.070312 L 109.800781 145.140625 L 110.457031 145.128906 L 110.449219 145 " fill-opacity="1" fill-rule="nonzero"/><path fill="rgb(97.648621%, 65.879822%, 14.898682%)" d="M 125.972656 143.953125 L 125.234375 144.023438 L 125.242188 144.164062 L 125.980469 144.160156 L 125.972656 143.953125 " fill-opacity="1" fill-rule="nonzero"/><path fill="rgb(97.648621%, 65.879822%, 14.898682%)" d="M 133.890625 144.902344 L 133.15625 144.835938 L 133.15625 145 L 133.894531 145.015625 L 133.890625 144.902344 " fill-opacity="1" fill-rule="nonzero"/><path fill="rgb(97.648621%, 65.879822%, 14.898682%)" d="M 123.789062 147.125 L 123.277344 147.160156 L 123.285156 147.242188 L 123.792969 147.195312 L 123.789062 147.125 " fill-opacity="1" fill-rule="nonzero"/><path fill="rgb(97.648621%, 65.879822%, 14.898682%)" d="M 79.597656 149.164062 L 78.929688 149.148438 L 78.921875 149.304688 L 79.59375 149.304688 L 79.597656 149.164062 " fill-opacity="1" fill-rule="nonzero"/><path fill="rgb(97.648621%, 65.879822%, 14.898682%)" d="M 100.03125 149.03125 L 99.535156 149.011719 L 99.535156 149.09375 L 100.03125 149.101562 L 100.03125 149.03125 " fill-opacity="1" fill-rule="nonzero"/><path fill="rgb(97.648621%, 65.879822%, 14.898682%)" d="M 87.742188 129.832031 L 87.242188 129.8125 L 87.242188 129.898438 L 87.742188 129.902344 L 87.742188 129.832031 " fill-opacity="1" fill-rule="nonzero"/><path fill="rgb(97.648621%, 65.879822%, 14.898682%)" d="M 121.753906 149.140625 L 121.257812 149.117188 L 121.25 149.210938 L 121.75 149.222656 L 121.753906 149.140625 " fill-opacity="1" fill-rule="nonzero"/><path fill="rgb(97.648621%, 65.879822%, 14.898682%)" d="M 61.824219 151.242188 L 61.179688 151.222656 L 61.179688 151.351562 L 61.824219 151.363281 L 61.824219 151.242188 " fill-opacity="1" fill-rule="nonzero"/><path fill="rgb(97.648621%, 65.879822%, 14.898682%)" d="M 79.410156 145.53125 L 78.734375 145.511719 L 78.742188 145.667969 L 79.414062 145.625 L 79.410156 145.53125 " fill-opacity="1" fill-rule="nonzero"/><path fill="rgb(97.648621%, 65.879822%, 14.898682%)" d="M 83.722656 137.308594 L 83.046875 137.289062 L 83.050781 137.445312 L 83.726562 137.40625 L 83.722656 137.308594 " fill-opacity="1" fill-rule="nonzero"/><path fill="rgb(97.648621%, 65.879822%, 14.898682%)" d="M 83.554688 142.167969 L 82.757812 142.238281 L 82.765625 142.425781 L 83.566406 142.390625 L 83.554688 142.167969 " fill-opacity="1" fill-rule="nonzero"/><path fill="rgb(97.648621%, 65.879822%, 14.898682%)" d="M 77.765625 145.683594 L 77.136719 145.699219 L 77.132812 145.796875 L 77.765625 145.78125 L 77.765625 145.683594 " fill-opacity="1" fill-rule="nonzero"/><path fill="rgb(97.648621%, 65.879822%, 14.898682%)" d="M 66.945312 147.773438 L 66.378906 147.816406 L 66.386719 147.886719 L 66.953125 147.867188 L 66.945312 147.773438 " fill-opacity="1" fill-rule="nonzero"/><path fill="rgb(97.648621%, 65.879822%, 14.898682%)" d="M 87.269531 152.050781 L 86.640625 152.066406 L 86.644531 152.183594 L 87.273438 152.132812 L 87.269531 152.050781 " fill-opacity="1" fill-rule="nonzero"/><path fill="rgb(97.648621%, 65.879822%, 14.898682%)" d="M 62.90625 156.886719 L 62.464844 156.949219 L 62.46875 157.007812 L 62.914062 157.003906 L 62.90625 156.886719 " fill-opacity="1" fill-rule="nonzero"/><path fill="rgb(97.648621%, 65.879822%, 14.898682%)" d="M 71.265625 155.4375 L 70.464844 155.441406 L 70.472656 155.605469 L 71.269531 155.574219 L 71.265625 155.4375 " fill-opacity="1" fill-rule="nonzero"/><path fill="rgb(97.648621%, 65.879822%, 14.898682%)" d="M 112.914062 161.378906 L 112.300781 161.304688 L 112.285156 161.429688 L 112.894531 161.527344 L 112.914062 161.378906 " fill-opacity="1" fill-rule="nonzero"/><path fill="rgb(97.648621%, 65.879822%, 14.898682%)" d="M 77.6875 155.75 L 77.019531 155.722656 L 77.027344 155.898438 L 77.691406 155.859375 L 77.6875 155.75 " fill-opacity="1" fill-rule="nonzero"/><path fill="rgb(97.648621%, 65.879822%, 14.898682%)" d="M 63.214844 160.914062 L 62.484375 160.921875 L 62.484375 161.0625 L 63.214844 160.980469 L 63.214844 160.914062 " fill-opacity="1" fill-rule="nonzero"/><path fill="rgb(97.648621%, 65.879822%, 14.898682%)" d="M 82.1875 172.503906 L 81.605469 172.609375 L 81.625 172.738281 L 82.210938 172.640625 L 82.1875 172.503906 " fill-opacity="1" fill-rule="nonzero"/><path fill="rgb(97.648621%, 65.879822%, 14.898682%)" d="M 80.5 175.847656 L 79.976562 175.828125 L 79.980469 175.949219 L 80.503906 175.917969 L 80.5 175.847656 " fill-opacity="1" fill-rule="nonzero"/><path fill="rgb(97.648621%, 65.879822%, 14.898682%)" d="M 97.382812 170.921875 L 96.878906 170.875 L 96.867188 171 L 97.371094 171.042969 L 97.382812 170.921875 " fill-opacity="1" fill-rule="nonzero"/><path fill="rgb(97.648621%, 65.879822%, 14.898682%)" d="M 72.117188 171.34375 L 71.289062 171.34375 L 71.28125 171.480469 L 72.113281 171.519531 L 72.117188 171.34375 " fill-opacity="1" fill-rule="nonzero"/><path fill="rgb(97.648621%, 65.879822%, 14.898682%)" d="M 82.292969 159.671875 L 81.910156 159.671875 L 81.90625 159.746094 L 82.285156 159.738281 L 82.292969 159.671875 " fill-opacity="1" fill-rule="nonzero"/><path fill="rgb(97.648621%, 65.879822%, 14.898682%)" d="M 79.386719 163.652344 L 78.949219 163.660156 L 78.949219 163.726562 L 79.386719 163.710938 L 79.386719 163.652344 " fill-opacity="1" fill-rule="nonzero"/><path fill="rgb(97.648621%, 65.879822%, 14.898682%)" d="M 86.011719 162.800781 L 85.308594 162.753906 L 85.296875 162.910156 L 86 162.941406 L 86.011719 162.800781 " fill-opacity="1" fill-rule="nonzero"/><path fill="rgb(97.648621%, 65.879822%, 14.898682%)" d="M 84.628906 173.65625 L 83.976562 173.609375 L 83.96875 173.796875 L 84.628906 173.820312 L 84.628906 173.65625 " fill-opacity="1" fill-rule="nonzero"/><path fill="rgb(97.648621%, 65.879822%, 14.898682%)" d="M 117.523438 169.414062 L 117.035156 169.34375 L 117.027344 169.433594 L 117.515625 169.496094 L 117.523438 169.414062 " fill-opacity="1" fill-rule="nonzero"/><path fill="rgb(97.648621%, 65.879822%, 14.898682%)" d="M 77.902344 174.335938 L 77.09375 174.285156 L 77.082031 174.441406 L 77.890625 174.5 L 77.902344 174.335938 " fill-opacity="1" fill-rule="nonzero"/><path fill="rgb(97.648621%, 65.879822%, 14.898682%)" d="M 133.398438 175.136719 L 132.78125 175.195312 L 132.792969 175.363281 L 133.410156 175.277344 L 133.398438 175.136719 " fill-opacity="1" fill-rule="nonzero"/><path fill="rgb(97.648621%, 65.879822%, 14.898682%)" d="M 140.445312 179.839844 L 139.886719 179.808594 L 139.890625 179.9375 L 140.449219 179.921875 L 140.445312 179.839844 " fill-opacity="1" fill-rule="nonzero"/><path fill="rgb(97.648621%, 65.879822%, 14.898682%)" d="M 135.28125 182.378906 L 134.402344 182.359375 L 134.417969 182.585938 L 135.289062 182.542969 L 135.28125 182.378906 " fill-opacity="1" fill-rule="nonzero"/><path fill="rgb(97.648621%, 65.879822%, 14.898682%)" d="M 99.785156 181.445312 L 99.332031 181.539062 L 99.339844 181.609375 L 99.800781 181.546875 L 99.785156 181.445312 " fill-opacity="1" fill-rule="nonzero"/><path fill="rgb(97.648621%, 65.879822%, 14.898682%)" d="M 113.316406 175.824219 L 112.636719 175.769531 L 112.621094 175.9375 L 113.296875 175.996094 L 113.316406 175.824219 " fill-opacity="1" fill-rule="nonzero"/><path fill="rgb(97.648621%, 65.879822%, 14.898682%)" d="M 118.164062 172.054688 L 117.378906 172.007812 L 117.371094 172.136719 L 118.15625 172.230469 L 118.164062 172.054688 " fill-opacity="1" fill-rule="nonzero"/><path fill="rgb(97.648621%, 65.879822%, 14.898682%)" d="M 140.097656 197.878906 L 139.648438 197.875 L 139.644531 197.917969 L 140.09375 197.941406 L 140.097656 197.878906 " fill-opacity="1" fill-rule="nonzero"/><path fill="rgb(97.648621%, 65.879822%, 14.898682%)" d="M 144.394531 185.09375 L 143.75 185.261719 L 143.757812 185.320312 L 144.414062 185.230469 L 144.394531 185.09375 " fill-opacity="1" fill-rule="nonzero"/><path fill="rgb(97.648621%, 65.879822%, 14.898682%)" d="M 110.066406 181.085938 L 109.136719 181.0625 L 109.136719 181.25 L 110.066406 181.316406 L 110.066406 181.085938 " fill-opacity="1" fill-rule="nonzero"/><path fill="rgb(97.648621%, 65.879822%, 14.898682%)" d="M 118.417969 176.214844 L 117.640625 176.253906 L 117.640625 176.332031 L 118.425781 176.347656 L 118.417969 176.214844 " fill-opacity="1" fill-rule="nonzero"/><path fill="rgb(97.648621%, 65.879822%, 14.898682%)" d="M 121.519531 170.835938 L 120.738281 170.816406 L 120.730469 170.941406 L 121.511719 170.9375 L 121.519531 170.835938 " fill-opacity="1" fill-rule="nonzero"/><path fill="rgb(97.648621%, 65.879822%, 14.898682%)" d="M 87.816406 178.285156 L 87.066406 178.203125 L 87.042969 178.347656 L 87.789062 178.4375 L 87.816406 178.285156 " fill-opacity="1" fill-rule="nonzero"/><path fill="rgb(97.648621%, 65.879822%, 14.898682%)" d="M 87.027344 167.308594 L 86.425781 167.292969 L 86.425781 167.433594 L 87.027344 167.429688 L 87.027344 167.308594 " fill-opacity="1" fill-rule="nonzero"/><path fill="rgb(97.648621%, 65.879822%, 14.898682%)" d="M 101.375 153.261719 L 100.742188 153.195312 L 100.738281 153.3125 L 101.375 153.3125 L 101.375 153.261719 " fill-opacity="1" fill-rule="nonzero"/><path fill="rgb(97.648621%, 65.879822%, 14.898682%)" d="M 111.671875 164.121094 L 111.273438 164.121094 L 111.269531 164.152344 L 111.660156 164.203125 L 111.671875 164.121094 " fill-opacity="1" fill-rule="nonzero"/><path fill="rgb(97.648621%, 65.879822%, 14.898682%)" d="M 109.257812 163.992188 L 108.648438 163.9375 L 108.636719 164.082031 L 109.246094 164.125 L 109.257812 163.992188 " fill-opacity="1" fill-rule="nonzero"/><path fill="rgb(97.648621%, 65.879822%, 14.898682%)" d="M 104.707031 160.484375 L 104.257812 160.511719 L 104.253906 160.5625 L 104.703125 160.609375 L 104.707031 160.484375 " fill-opacity="1" fill-rule="nonzero"/><path fill="rgb(97.648621%, 65.879822%, 14.898682%)" d="M 108.503906 176.480469 L 107.667969 176.449219 L 107.675781 176.683594 L 108.511719 176.628906 L 108.503906 176.480469 " fill-opacity="1" fill-rule="nonzero"/><path fill="rgb(97.648621%, 65.879822%, 14.898682%)" d="M 94.585938 159.421875 L 93.753906 159.402344 L 93.757812 159.511719 L 94.585938 159.503906 L 94.585938 159.421875 " fill-opacity="1" fill-rule="nonzero"/><path fill="rgb(97.648621%, 65.879822%, 14.898682%)" d="M 95.125 147.941406 L 94.59375 147.976562 L 94.597656 148.046875 L 95.128906 148.027344 L 95.125 147.941406 " fill-opacity="1" fill-rule="nonzero"/><path fill="rgb(97.648621%, 65.879822%, 14.898682%)" d="M 103.652344 141.066406 L 102.863281 140.949219 L 102.851562 141.140625 L 103.640625 141.238281 L 103.652344 141.066406 " fill-opacity="1" fill-rule="nonzero"/><path fill="rgb(97.648621%, 65.879822%, 14.898682%)" d="M 105.429688 138.65625 L 104.511719 138.753906 L 104.523438 138.886719 L 105.441406 138.789062 L 105.429688 138.65625 " fill-opacity="1" fill-rule="nonzero"/><path fill="rgb(97.648621%, 65.879822%, 14.898682%)" d="M 115.542969 130.71875 L 114.804688 130.570312 L 114.785156 130.710938 L 115.523438 130.871094 L 115.542969 130.71875 " fill-opacity="1" fill-rule="nonzero"/><path fill="rgb(97.648621%, 65.879822%, 14.898682%)" d="M 135.78125 126.710938 L 135.144531 126.738281 L 135.148438 126.824219 L 135.785156 126.804688 L 135.78125 126.710938 " fill-opacity="1" fill-rule="nonzero"/><path fill="rgb(97.648621%, 65.879822%, 14.898682%)" d="M 112.359375 124.597656 L 111.605469 124.535156 L 111.59375 124.695312 L 112.347656 124.738281 L 112.359375 124.597656 " fill-opacity="1" fill-rule="nonzero"/><path fill="rgb(97.648621%, 65.879822%, 14.898682%)" d="M 105.460938 125.3125 L 104.707031 125.378906 L 104.699219 125.21875 L 105.453125 125.175781 L 105.460938 125.3125 " fill-opacity="1" fill-rule="nonzero"/><path fill="rgb(97.648621%, 65.879822%, 14.898682%)" d="M 111.601562 122.316406 L 110.992188 122.304688 L 111 122.40625 L 111.609375 122.390625 L 111.601562 122.316406 " fill-opacity="1" fill-rule="nonzero"/><path fill="rgb(97.648621%, 65.879822%, 14.898682%)" d="M 149.222656 137.289062 L 148.289062 137.253906 L 148.269531 137.382812 L 149.199219 137.46875 L 149.222656 137.289062 " fill-opacity="1" fill-rule="nonzero"/><path fill="rgb(97.648621%, 65.879822%, 14.898682%)" d="M 151.65625 141.613281 L 151.105469 141.601562 L 151.105469 141.746094 L 151.65625 141.765625 L 151.65625 141.613281 " fill-opacity="1" fill-rule="nonzero"/><path fill="rgb(97.648621%, 65.879822%, 14.898682%)" d="M 154.910156 142.542969 L 154.378906 142.554688 L 154.378906 142.597656 L 154.90625 142.632812 L 154.910156 142.542969 " fill-opacity="1" fill-rule="nonzero"/><path fill="rgb(97.648621%, 65.879822%, 14.898682%)" d="M 141.578125 125.398438 L 140.789062 125.460938 L 140.800781 125.660156 L 141.589844 125.558594 L 141.578125 125.398438 " fill-opacity="1" fill-rule="nonzero"/><path fill="rgb(97.648621%, 65.879822%, 14.898682%)" d="M 129.222656 125.679688 L 128.429688 125.5625 L 128.414062 125.753906 L 129.214844 125.78125 L 129.222656 125.679688 " fill-opacity="1" fill-rule="nonzero"/><path fill="rgb(97.648621%, 65.879822%, 14.898682%)" d="M 153.105469 135.546875 L 152.378906 135.558594 L 152.386719 135.734375 L 153.113281 135.683594 L 153.105469 135.546875 " fill-opacity="1" fill-rule="nonzero"/><path fill="rgb(97.648621%, 65.879822%, 14.898682%)" d="M 130.273438 153.859375 L 129.78125 153.808594 L 129.769531 153.917969 L 130.265625 153.941406 L 130.273438 153.859375 " fill-opacity="1" fill-rule="nonzero"/><path fill="rgb(97.648621%, 65.879822%, 14.898682%)" d="M 145.5 158.074219 L 144.84375 158.148438 L 144.851562 158.246094 L 145.511719 158.230469 L 145.5 158.074219 " fill-opacity="1" fill-rule="nonzero"/><path fill="rgb(97.648621%, 65.879822%, 14.898682%)" d="M 136.050781 157.503906 L 135.429688 157.496094 L 135.425781 157.636719 L 136.050781 157.648438 L 136.050781 157.503906 " fill-opacity="1" fill-rule="nonzero"/><path fill="rgb(97.648621%, 65.879822%, 14.898682%)" d="M 119.4375 160.050781 L 118.726562 160.105469 L 118.730469 160.265625 L 119.4375 160.246094 L 119.4375 160.050781 " fill-opacity="1" fill-rule="nonzero"/><path fill="rgb(97.648621%, 65.879822%, 14.898682%)" d="M 134.746094 166.171875 L 134.277344 166.195312 L 134.273438 166.25 L 134.746094 166.25 L 134.746094 166.171875 " fill-opacity="1" fill-rule="nonzero"/><path fill="rgb(97.648621%, 65.879822%, 14.898682%)" d="M 146.734375 167.042969 L 146.046875 167.140625 L 146.050781 167.210938 L 146.742188 167.207031 L 146.734375 167.042969 " fill-opacity="1" fill-rule="nonzero"/><path fill="rgb(97.648621%, 65.879822%, 14.898682%)" d="M 124.351562 160.84375 L 123.6875 160.84375 L 123.679688 160.929688 L 124.339844 161.007812 L 124.351562 160.84375 " fill-opacity="1" fill-rule="nonzero"/><path fill="rgb(97.648621%, 65.879822%, 14.898682%)" d="M 124.324219 163.140625 L 123.734375 163.136719 L 123.742188 163.261719 L 124.328125 163.230469 L 124.324219 163.140625 " fill-opacity="1" fill-rule="nonzero"/><path fill="rgb(97.648621%, 65.879822%, 14.898682%)" d="M 133.460938 163.410156 L 132.871094 163.40625 L 132.878906 163.535156 L 133.464844 163.496094 L 133.460938 163.410156 " fill-opacity="1" fill-rule="nonzero"/><path fill="rgb(97.648621%, 65.879822%, 14.898682%)" d="M 147.742188 172.503906 L 147.070312 172.472656 L 147.070312 172.605469 L 147.738281 172.664062 L 147.742188 172.503906 " fill-opacity="1" fill-rule="nonzero"/><path fill="rgb(97.648621%, 65.879822%, 14.898682%)" d="M 146.34375 177.863281 L 145.597656 177.898438 L 145.601562 178.042969 L 146.351562 178.039062 L 146.34375 177.863281 " fill-opacity="1" fill-rule="nonzero"/><path fill="rgb(97.648621%, 65.879822%, 14.898682%)" d="M 140.5 181.507812 L 139.976562 181.519531 L 139.984375 181.605469 L 140.503906 181.605469 L 140.5 181.507812 " fill-opacity="1" fill-rule="nonzero"/><path fill="rgb(97.648621%, 65.879822%, 14.898682%)" d="M 142.519531 190.804688 L 141.921875 190.804688 L 141.925781 190.933594 L 142.523438 190.949219 L 142.519531 190.804688 " fill-opacity="1" fill-rule="nonzero"/><path fill="rgb(97.648621%, 65.879822%, 14.898682%)" d="M 127.785156 182.671875 L 127.148438 182.660156 L 127.136719 182.769531 L 127.769531 182.796875 L 127.785156 182.671875 " fill-opacity="1" fill-rule="nonzero"/><path fill="rgb(97.648621%, 65.879822%, 14.898682%)" d="M 146.074219 172.386719 L 145.429688 172.425781 L 145.433594 172.53125 L 146.074219 172.535156 L 146.074219 172.386719 " fill-opacity="1" fill-rule="nonzero"/><path fill="rgb(97.648621%, 65.879822%, 14.898682%)" d="M 152.652344 173.625 L 151.96875 173.566406 L 151.960938 173.679688 L 152.644531 173.769531 L 152.652344 173.625 " fill-opacity="1" fill-rule="nonzero"/><path fill="rgb(97.648621%, 65.879822%, 14.898682%)" d="M 150.308594 164.015625 L 149.746094 163.941406 L 149.734375 164.0625 L 150.296875 164.160156 L 150.308594 164.015625 " fill-opacity="1" fill-rule="nonzero"/><path fill="rgb(97.648621%, 65.879822%, 14.898682%)" d="M 142.160156 154.097656 L 141.628906 154.167969 L 141.636719 154.289062 L 142.171875 154.25 L 142.160156 154.097656 " fill-opacity="1" fill-rule="nonzero"/><path fill="rgb(97.648621%, 65.879822%, 14.898682%)" d="M 154.636719 147.40625 L 154.070312 147.496094 L 154.074219 147.558594 L 154.644531 147.542969 L 154.636719 147.40625 " fill-opacity="1" fill-rule="nonzero"/><path fill="rgb(97.648621%, 65.879822%, 14.898682%)" d="M 151.402344 147.472656 L 150.726562 147.457031 L 150.722656 147.5625 L 151.398438 147.601562 L 151.402344 147.472656 " fill-opacity="1" fill-rule="nonzero"/><path fill="rgb(97.648621%, 65.879822%, 14.898682%)" d="M 137.902344 146.523438 L 137.285156 146.53125 L 137.277344 146.640625 L 137.894531 146.65625 L 137.902344 146.523438 " fill-opacity="1" fill-rule="nonzero"/><path fill="rgb(97.648621%, 65.879822%, 14.898682%)" d="M 122.144531 155.046875 L 121.53125 155.054688 L 121.523438 155.164062 L 122.140625 155.179688 L 122.144531 155.046875 " fill-opacity="1" fill-rule="nonzero"/><path fill="rgb(97.648621%, 65.879822%, 14.898682%)" d="M 158.832031 151.378906 L 158.066406 151.28125 L 158.046875 151.476562 L 158.816406 151.542969 L 158.832031 151.378906 " fill-opacity="1" fill-rule="nonzero"/><path fill="rgb(97.648621%, 65.879822%, 14.898682%)" d="M 162.667969 151.972656 L 161.714844 151.972656 L 161.710938 152.179688 L 162.664062 152.25 L 162.667969 151.972656 " fill-opacity="1" fill-rule="nonzero"/><path fill="rgb(97.648621%, 65.879822%, 14.898682%)" d="M 160.707031 163.46875 L 160.273438 163.472656 L 160.273438 163.535156 L 160.707031 163.527344 L 160.707031 163.46875 " fill-opacity="1" fill-rule="nonzero"/><path fill="rgb(97.648621%, 65.879822%, 14.898682%)" d="M 160.183594 167.367188 L 159.550781 167.394531 L 159.554688 167.496094 L 160.1875 167.519531 L 160.183594 167.367188 " fill-opacity="1" fill-rule="nonzero"/><path fill="rgb(97.648621%, 65.879822%, 14.898682%)" d="M 158.882812 156.816406 L 158.046875 156.8125 L 158.039062 156.925781 L 158.871094 157.003906 L 158.882812 156.816406 " fill-opacity="1" fill-rule="nonzero"/><path fill="rgb(97.648621%, 65.879822%, 14.898682%)" d="M 156.902344 140.34375 L 156.386719 140.367188 L 156.394531 140.476562 L 156.910156 140.425781 L 156.902344 140.34375 " fill-opacity="1" fill-rule="nonzero"/><path fill="rgb(97.648621%, 65.879822%, 14.898682%)" d="M 126.488281 139.175781 L 125.761719 139.125 L 125.757812 139.261719 L 126.484375 139.265625 L 126.488281 139.175781 " fill-opacity="1" fill-rule="nonzero"/><path fill="rgb(97.648621%, 65.879822%, 14.898682%)" d="M 130.988281 138.789062 L 130.277344 138.859375 L 130.292969 139.003906 L 131.003906 138.925781 L 130.988281 138.789062 " fill-opacity="1" fill-rule="nonzero"/><path fill="rgb(97.648621%, 65.879822%, 14.898682%)" d="M 109.3125 152.023438 L 108.574219 152.078125 L 108.578125 152.234375 L 109.3125 152.160156 L 109.3125 152.023438 " fill-opacity="1" fill-rule="nonzero"/><path fill="rgb(97.648621%, 65.879822%, 14.898682%)" d="M 98.304688 158.101562 L 97.746094 158.035156 L 97.742188 158.164062 L 98.300781 158.152344 L 98.304688 158.101562 " fill-opacity="1" fill-rule="nonzero"/><path fill="rgb(97.648621%, 65.879822%, 14.898682%)" d="M 96.074219 149.945312 L 95.578125 149.945312 L 95.582031 150.019531 L 96.078125 150.011719 L 96.074219 149.945312 " fill-opacity="1" fill-rule="nonzero"/><path fill="rgb(97.648621%, 65.879822%, 14.898682%)" d="M 112.003906 142.671875 L 111.382812 142.648438 L 111.386719 142.804688 L 112.007812 142.738281 L 112.003906 142.671875 " fill-opacity="1" fill-rule="nonzero"/><path fill="rgb(97.648621%, 65.879822%, 14.898682%)" d="M 110.015625 142.429688 L 109.339844 142.492188 L 109.339844 142.617188 L 110.015625 142.566406 L 110.015625 142.429688 " fill-opacity="1" fill-rule="nonzero"/><path fill="rgb(97.648621%, 65.879822%, 14.898682%)" d="M 95.832031 136.863281 L 94.996094 136.855469 L 94.996094 136.953125 L 95.832031 136.988281 L 95.832031 136.863281 " fill-opacity="1" fill-rule="nonzero"/><path fill="rgb(97.648621%, 65.879822%, 14.898682%)" d="M 80.941406 127.550781 L 80.105469 127.542969 L 80.105469 127.640625 L 80.941406 127.675781 L 80.941406 127.550781 " fill-opacity="1" fill-rule="nonzero"/><path fill="rgb(97.648621%, 65.879822%, 14.898682%)" d="M 80.628906 135.246094 L 80.09375 135.351562 L 80.113281 135.472656 L 80.644531 135.351562 L 80.628906 135.246094 " fill-opacity="1" fill-rule="nonzero"/><path fill="rgb(97.648621%, 65.879822%, 14.898682%)" d="M 72.972656 136.539062 L 72.316406 136.457031 L 72.304688 136.605469 L 72.964844 136.640625 L 72.972656 136.539062 " fill-opacity="1" fill-rule="nonzero"/><path fill="rgb(97.648621%, 65.879822%, 14.898682%)" d="M 66.316406 143.5 L 65.710938 143.414062 L 65.703125 143.519531 L 66.304688 143.601562 L 66.316406 143.5 " fill-opacity="1" fill-rule="nonzero"/><path fill="rgb(97.648621%, 65.879822%, 14.898682%)" d="M 76.992188 136.757812 L 76.457031 136.800781 L 76.457031 136.886719 L 76.996094 136.84375 L 76.992188 136.757812 " fill-opacity="1" fill-rule="nonzero"/><path fill="rgb(97.648621%, 65.879822%, 14.898682%)" d="M 95.621094 123.230469 L 94.855469 123.242188 L 94.855469 123.4375 L 95.621094 123.433594 L 95.621094 123.230469 " fill-opacity="1" fill-rule="nonzero"/><path fill="rgb(97.648621%, 65.879822%, 14.898682%)" d="M 98.6875 123.234375 L 98.105469 123.246094 L 98.105469 123.308594 L 98.6875 123.34375 L 98.6875 123.234375 " fill-opacity="1" fill-rule="nonzero"/><path fill="rgb(97.648621%, 65.879822%, 14.898682%)" d="M 76.039062 128.851562 L 75.449219 128.789062 L 75.429688 128.941406 L 76.023438 128.984375 L 76.039062 128.851562 " fill-opacity="1" fill-rule="nonzero"/><path fill="rgb(97.648621%, 65.879822%, 14.898682%)" d="M 71.59375 132.574219 L 71.128906 132.523438 L 71.121094 132.636719 L 71.589844 132.640625 L 71.59375 132.574219 " fill-opacity="1" fill-rule="nonzero"/><path fill="rgb(97.648621%, 65.879822%, 14.898682%)" d="M 63.949219 140.707031 L 63.132812 140.679688 L 63.121094 140.777344 L 63.9375 140.84375 L 63.949219 140.707031 " fill-opacity="1" fill-rule="nonzero"/><path fill="rgb(97.648621%, 65.879822%, 14.898682%)" d="M 101.402344 178.222656 L 100.769531 178.371094 L 100.78125 178.472656 L 101.417969 178.335938 L 101.402344 178.222656 " fill-opacity="1" fill-rule="nonzero"/><path fill="rgb(97.648621%, 65.879822%, 14.898682%)" d="M 109.25 157.214844 L 108.480469 157.195312 L 108.472656 157.296875 L 109.242188 157.335938 L 109.25 157.214844 " fill-opacity="1" fill-rule="nonzero"/><path fill="rgb(97.648621%, 65.879822%, 14.898682%)" d="M 122.0625 131.292969 L 121.617188 131.269531 L 121.605469 131.351562 L 122.050781 131.390625 L 122.0625 131.292969 " fill-opacity="1" fill-rule="nonzero"/><path fill="rgb(97.648621%, 65.879822%, 14.898682%)" d="M 115.699219 122.21875 L 115.285156 122.179688 L 115.277344 122.269531 L 115.695312 122.300781 L 115.699219 122.21875 " fill-opacity="1" fill-rule="nonzero"/><path fill="rgb(97.648621%, 65.879822%, 14.898682%)" d="M 105.570312 121.648438 L 104.796875 121.679688 L 104.796875 121.871094 L 105.570312 121.859375 L 105.570312 121.648438 " fill-opacity="1" fill-rule="nonzero"/><path fill="rgb(97.648621%, 65.879822%, 14.898682%)" d="M 106.90625 129.964844 L 106.277344 130.105469 L 106.296875 130.207031 L 106.9375 130.125 L 106.90625 129.964844 " fill-opacity="1" fill-rule="nonzero"/><path fill="rgb(97.648621%, 65.879822%, 14.898682%)" d="M 121.921875 139.4375 L 121.457031 139.414062 L 121.453125 139.488281 L 121.917969 139.503906 L 121.921875 139.4375 " fill-opacity="1" fill-rule="nonzero"/><path fill="rgb(97.648621%, 65.879822%, 14.898682%)" d="M 110.300781 148.519531 L 109.851562 148.507812 L 109.84375 148.597656 L 110.292969 148.632812 L 110.300781 148.519531 " fill-opacity="1" fill-rule="nonzero"/><path fill="rgb(97.648621%, 65.879822%, 14.898682%)" d="M 111.851562 150.3125 L 111.3125 150.355469 L 111.324219 150.496094 L 111.863281 150.4375 L 111.851562 150.3125 " fill-opacity="1" fill-rule="nonzero"/><path fill="rgb(97.648621%, 65.879822%, 14.898682%)" d="M 138.195312 157.992188 L 137.59375 157.980469 L 137.589844 158.152344 L 138.195312 158.144531 L 138.195312 157.992188 " fill-opacity="1" fill-rule="nonzero"/><path fill="rgb(97.648621%, 65.879822%, 14.898682%)" d="M 137.53125 191.957031 L 138.203125 191.921875 L 138.199219 191.800781 L 137.527344 191.808594 L 137.53125 191.957031 " fill-opacity="1" fill-rule="nonzero"/><path fill="rgb(97.648621%, 65.879822%, 14.898682%)" d="M 134.417969 195.558594 L 135.085938 195.539062 L 135.085938 195.46875 L 134.421875 195.425781 L 134.417969 195.558594 " fill-opacity="1" fill-rule="nonzero"/><path fill="rgb(97.648621%, 65.879822%, 14.898682%)" d="M 138.058594 199.882812 L 138.632812 199.964844 L 138.640625 199.867188 L 138.078125 199.75 L 138.058594 199.882812 " fill-opacity="1" fill-rule="nonzero"/><path fill="rgb(97.648621%, 65.879822%, 14.898682%)" d="M 135.203125 200.375 L 136.054688 200.414062 L 136.066406 200.21875 L 135.214844 200.167969 L 135.203125 200.375 " fill-opacity="1" fill-rule="nonzero"/><path fill="rgb(97.648621%, 65.879822%, 14.898682%)" d="M 142.316406 194.703125 L 142.75 194.746094 L 142.757812 194.679688 L 142.328125 194.605469 L 142.316406 194.703125 " fill-opacity="1" fill-rule="nonzero"/><path fill="rgb(97.648621%, 65.879822%, 14.898682%)" d="M 107.84375 180.820312 L 108.351562 180.78125 L 108.34375 180.675781 L 107.835938 180.746094 L 107.84375 180.820312 " fill-opacity="1" fill-rule="nonzero"/><path fill="rgb(97.648621%, 65.879822%, 14.898682%)" d="M 147.910156 177.355469 L 148.582031 177.375 L 148.582031 177.222656 L 147.910156 177.222656 L 147.910156 177.355469 " fill-opacity="1" fill-rule="nonzero"/><path fill="rgb(97.648621%, 65.879822%, 14.898682%)" d="M 131.597656 178.914062 L 132.097656 178.910156 L 132.097656 178.828125 L 131.597656 178.808594 L 131.597656 178.914062 " fill-opacity="1" fill-rule="nonzero"/><path fill="rgb(97.648621%, 65.879822%, 14.898682%)" d="M 109.875 178.808594 L 110.367188 178.859375 L 110.375 178.769531 L 109.882812 178.679688 L 109.875 178.808594 " fill-opacity="1" fill-rule="nonzero"/><path fill="rgb(97.648621%, 65.879822%, 14.898682%)" d="M 152.222656 182.445312 L 152.894531 182.433594 L 152.890625 182.300781 L 152.214844 182.269531 L 152.222656 182.445312 " fill-opacity="1" fill-rule="nonzero"/><path fill="rgb(97.648621%, 65.879822%, 14.898682%)" d="M 148.070312 185.6875 L 148.875 185.699219 L 148.867188 185.535156 L 148.066406 185.527344 L 148.070312 185.6875 " fill-opacity="1" fill-rule="nonzero"/><path fill="rgb(97.648621%, 65.879822%, 14.898682%)" d="M 153.332031 181.070312 L 153.964844 181.074219 L 153.964844 180.972656 L 153.332031 180.96875 L 153.332031 181.070312 " fill-opacity="1" fill-rule="nonzero"/><path fill="rgb(97.648621%, 65.879822%, 14.898682%)" d="M 144.359375 175.90625 L 144.992188 175.867188 L 144.988281 175.792969 L 144.355469 175.753906 L 144.359375 175.90625 " fill-opacity="1" fill-rule="nonzero"/><path fill="rgb(97.648621%, 65.879822%, 14.898682%)" d="M 118.714844 166.5625 L 119.332031 166.601562 L 119.34375 166.539062 L 118.738281 166.402344 L 118.714844 166.5625 " fill-opacity="1" fill-rule="nonzero"/><path fill="rgb(97.648621%, 65.879822%, 14.898682%)" d="M 153.941406 172.230469 L 154.613281 172.210938 L 154.605469 172.050781 L 153.9375 172.105469 L 153.941406 172.230469 " fill-opacity="1" fill-rule="nonzero"/><path fill="rgb(97.648621%, 65.879822%, 14.898682%)" d="M 149.441406 155.417969 L 150.023438 155.3125 L 150.011719 155.234375 L 149.417969 155.28125 L 149.441406 155.417969 " fill-opacity="1" fill-rule="nonzero"/><path fill="rgb(97.648621%, 65.879822%, 14.898682%)" d="M 151.128906 152.0625 L 151.652344 152.097656 L 151.652344 151.957031 L 151.125 152.019531 L 151.128906 152.0625 " fill-opacity="1" fill-rule="nonzero"/><path fill="rgb(97.648621%, 65.879822%, 14.898682%)" d="M 141.84375 141.820312 L 142.507812 141.753906 L 142.5 141.632812 L 141.835938 141.691406 L 141.84375 141.820312 " fill-opacity="1" fill-rule="nonzero"/><path fill="rgb(97.648621%, 65.879822%, 14.898682%)" d="M 136.101562 153.179688 L 136.765625 153.109375 L 136.757812 152.988281 L 136.097656 153.050781 L 136.101562 153.179688 " fill-opacity="1" fill-rule="nonzero"/><path fill="rgb(97.648621%, 65.879822%, 14.898682%)" d="M 114.339844 138.566406 L 114.90625 138.527344 L 114.894531 138.390625 L 114.332031 138.460938 L 114.339844 138.566406 " fill-opacity="1" fill-rule="nonzero"/><path fill="rgb(97.648621%, 65.879822%, 14.898682%)" d="M 136.679688 130.382812 L 137.078125 130.378906 L 137.074219 130.296875 L 136.679688 130.308594 L 136.679688 130.382812 " fill-opacity="1" fill-rule="nonzero"/><path fill="rgb(97.648621%, 65.879822%, 14.898682%)" d="M 102.300781 129.347656 L 103.035156 129.316406 L 103.019531 129.171875 L 102.285156 129.226562 L 102.300781 129.347656 " fill-opacity="1" fill-rule="nonzero"/><path fill="rgb(97.648621%, 65.879822%, 14.898682%)" d="M 132.707031 123.671875 L 133.257812 123.648438 L 133.25 123.511719 L 132.703125 123.574219 L 132.707031 123.671875 " fill-opacity="1" fill-rule="nonzero"/><path fill="rgb(97.648621%, 65.879822%, 14.898682%)" d="M 139.917969 129.34375 L 140.488281 129.316406 L 140.492188 129.226562 L 139.921875 129.191406 L 139.917969 129.34375 " fill-opacity="1" fill-rule="nonzero"/><path fill="rgb(97.648621%, 65.879822%, 14.898682%)" d="M 145.75 146.273438 L 146.335938 146.363281 L 146.351562 146.21875 L 145.757812 146.210938 L 145.75 146.273438 " fill-opacity="1" fill-rule="nonzero"/><path fill="rgb(97.648621%, 65.879822%, 14.898682%)" d="M 134.246094 157.023438 L 134.753906 157.011719 L 134.761719 156.953125 L 134.257812 156.890625 L 134.246094 157.023438 " fill-opacity="1" fill-rule="nonzero"/><path fill="rgb(97.648621%, 65.879822%, 14.898682%)" d="M 159.511719 156.628906 L 160.339844 156.644531 L 160.347656 156.492188 L 159.519531 156.402344 L 159.511719 156.628906 " fill-opacity="1" fill-rule="nonzero"/><path fill="rgb(97.648621%, 65.879822%, 14.898682%)" d="M 149.339844 168.246094 L 149.71875 168.277344 L 149.722656 168.222656 L 149.34375 168.179688 L 149.339844 168.246094 " fill-opacity="1" fill-rule="nonzero"/><path fill="rgb(97.648621%, 65.879822%, 14.898682%)" d="M 152.242188 164.277344 L 152.679688 164.269531 L 152.679688 164.195312 L 152.242188 164.195312 L 152.242188 164.277344 " fill-opacity="1" fill-rule="nonzero"/><path fill="rgb(97.648621%, 65.879822%, 14.898682%)" d="M 145.613281 165.15625 L 146.324219 165.144531 L 146.332031 165.070312 L 145.625 165.023438 L 145.613281 165.15625 " fill-opacity="1" fill-rule="nonzero"/><path fill="rgb(97.648621%, 65.879822%, 14.898682%)" d="M 147 154.285156 L 147.65625 154.277344 L 147.65625 154.183594 L 147.003906 154.125 L 147 154.285156 " fill-opacity="1" fill-rule="nonzero"/><path fill="rgb(97.648621%, 65.879822%, 14.898682%)" d="M 114.105469 158.550781 L 114.597656 158.550781 L 114.601562 158.503906 L 114.113281 158.476562 L 114.105469 158.550781 " fill-opacity="1" fill-rule="nonzero"/><path fill="rgb(97.648621%, 65.879822%, 14.898682%)" d="M 153.734375 153.507812 L 154.535156 153.660156 L 154.550781 153.441406 L 153.742188 153.40625 L 153.734375 153.507812 " fill-opacity="1" fill-rule="nonzero"/><path fill="rgb(97.648621%, 65.879822%, 14.898682%)" d="M 98.230469 152.746094 L 98.847656 152.683594 L 98.839844 152.613281 L 98.21875 152.609375 L 98.230469 152.746094 " fill-opacity="1" fill-rule="nonzero"/><path fill="rgb(97.648621%, 65.879822%, 14.898682%)" d="M 91.183594 148.09375 L 91.742188 148.078125 L 91.742188 147.992188 L 91.183594 148.019531 L 91.183594 148.09375 " fill-opacity="1" fill-rule="nonzero"/><path fill="rgb(97.648621%, 65.879822%, 14.898682%)" d="M 116.1875 142.144531 L 116.792969 142.210938 L 116.804688 142.066406 L 116.191406 142.054688 L 116.1875 142.144531 " fill-opacity="1" fill-rule="nonzero"/><path fill="rgb(97.648621%, 65.879822%, 14.898682%)" d="M 96.347656 145.539062 L 97.226562 145.539062 L 97.214844 145.355469 L 96.34375 145.417969 L 96.347656 145.539062 " fill-opacity="1" fill-rule="nonzero"/><path fill="rgb(97.648621%, 65.879822%, 14.898682%)" d="M 131.847656 146.503906 L 132.300781 146.394531 L 132.292969 146.347656 L 131.832031 146.402344 L 131.847656 146.503906 " fill-opacity="1" fill-rule="nonzero"/><path fill="rgb(97.648621%, 65.879822%, 14.898682%)" d="M 118.320312 152.058594 L 118.996094 152.152344 L 119.007812 152.042969 L 118.335938 151.921875 L 118.320312 152.058594 " fill-opacity="1" fill-rule="nonzero"/><path fill="rgb(97.648621%, 65.879822%, 14.898682%)" d="M 113.464844 155.910156 L 114.253906 155.898438 L 114.257812 155.792969 L 113.472656 155.757812 L 113.464844 155.910156 " fill-opacity="1" fill-rule="nonzero"/><path fill="rgb(97.648621%, 65.879822%, 14.898682%)" d="M 141.183594 136.617188 L 141.746094 136.640625 L 141.757812 136.539062 L 141.195312 136.519531 L 141.183594 136.617188 " fill-opacity="1" fill-rule="nonzero"/><path fill="rgb(97.648621%, 65.879822%, 14.898682%)" d="M 110.917969 133.792969 L 111.75 133.785156 L 111.753906 133.664062 L 110.925781 133.601562 L 110.917969 133.792969 " fill-opacity="1" fill-rule="nonzero"/><path fill="rgb(97.648621%, 65.879822%, 14.898682%)" d="M 137.9375 141.613281 L 138.617188 141.59375 L 138.613281 141.40625 L 137.929688 141.460938 L 137.9375 141.613281 " fill-opacity="1" fill-rule="nonzero"/><path fill="rgb(97.648621%, 65.879822%, 14.898682%)" d="M 138.378906 136.707031 L 139.015625 136.6875 L 139.007812 136.546875 L 138.375 136.625 L 138.378906 136.707031 " fill-opacity="1" fill-rule="nonzero"/><path fill="rgb(97.648621%, 65.879822%, 14.898682%)" d="M 122.847656 135.800781 L 123.664062 135.730469 L 123.652344 135.570312 L 122.832031 135.605469 L 122.847656 135.800781 " fill-opacity="1" fill-rule="nonzero"/><path fill="rgb(97.648621%, 65.879822%, 14.898682%)" d="M 127.394531 139.972656 L 127.96875 140.007812 L 127.976562 139.898438 L 127.40625 139.851562 L 127.394531 139.972656 " fill-opacity="1" fill-rule="nonzero"/><path fill="rgb(97.648621%, 65.879822%, 14.898682%)" d="M 120.90625 131.535156 L 121.316406 131.5625 L 121.320312 131.449219 L 120.90625 131.4375 L 120.90625 131.535156 " fill-opacity="1" fill-rule="nonzero"/><path fill="rgb(97.648621%, 65.879822%, 14.898682%)" d="M 120.605469 125.722656 L 121.019531 125.746094 L 121.019531 125.636719 L 120.605469 125.625 L 120.605469 125.722656 " fill-opacity="1" fill-rule="nonzero"/><path fill="rgb(97.648621%, 65.879822%, 14.898682%)" d="M 125.4375 136.300781 L 125.90625 136.328125 L 125.910156 136.265625 L 125.445312 136.191406 L 125.4375 136.300781 " fill-opacity="1" fill-rule="nonzero"/><path fill="rgb(97.648621%, 65.879822%, 14.898682%)" d="M 119.644531 129.667969 L 120.394531 129.675781 L 120.390625 129.523438 L 119.636719 129.539062 L 119.644531 129.667969 " fill-opacity="1" fill-rule="nonzero"/><path fill="rgb(97.648621%, 65.879822%, 14.898682%)" d="M 118.851562 133.746094 L 119.601562 133.777344 L 119.605469 133.683594 L 118.855469 133.636719 L 118.851562 133.746094 " fill-opacity="1" fill-rule="nonzero"/><path fill="rgb(97.648621%, 65.879822%, 14.898682%)" d="M 110.792969 147.25 L 111.453125 147.359375 L 111.46875 147.207031 L 110.796875 147.175781 L 110.792969 147.25 " fill-opacity="1" fill-rule="nonzero"/><path fill="rgb(97.648621%, 65.879822%, 14.898682%)" d="M 91.535156 130.046875 L 91.980469 130.085938 L 91.984375 129.992188 L 91.535156 129.96875 L 91.535156 130.046875 " fill-opacity="1" fill-rule="nonzero"/><path fill="rgb(97.648621%, 65.879822%, 14.898682%)" d="M 87.234375 142.808594 L 87.882812 142.695312 L 87.867188 142.585938 L 87.21875 142.714844 L 87.234375 142.808594 " fill-opacity="1" fill-rule="nonzero"/><path fill="rgb(97.648621%, 65.879822%, 14.898682%)" d="M 121.894531 146.503906 L 122.824219 146.554688 L 122.824219 146.347656 L 121.894531 146.289062 L 121.894531 146.503906 " fill-opacity="1" fill-rule="nonzero"/><path fill="rgb(97.648621%, 65.879822%, 14.898682%)" d="M 113.210938 151.707031 L 113.992188 151.722656 L 113.988281 151.585938 L 113.207031 151.578125 L 113.210938 151.707031 " fill-opacity="1" fill-rule="nonzero"/><path fill="rgb(97.648621%, 65.879822%, 14.898682%)" d="M 110.113281 157.078125 L 110.886719 157.175781 L 110.898438 157.050781 L 110.121094 156.957031 L 110.113281 157.078125 " fill-opacity="1" fill-rule="nonzero"/><path fill="rgb(97.648621%, 65.879822%, 14.898682%)" d="M 143.816406 149.644531 L 144.5625 149.746094 L 144.578125 149.648438 L 143.835938 149.53125 L 143.816406 149.644531 " fill-opacity="1" fill-rule="nonzero"/><path fill="rgb(97.648621%, 65.879822%, 14.898682%)" d="M 144.605469 160.640625 L 145.207031 160.625 L 145.207031 160.515625 L 144.605469 160.550781 L 144.605469 160.640625 " fill-opacity="1" fill-rule="nonzero"/><path fill="rgb(97.648621%, 65.879822%, 14.898682%)" d="M 130.253906 174.726562 L 130.890625 174.730469 L 130.890625 174.625 L 130.257812 174.566406 L 130.253906 174.726562 " fill-opacity="1" fill-rule="nonzero"/><path fill="rgb(97.648621%, 65.879822%, 14.898682%)" d="M 119.964844 163.773438 L 120.355469 163.832031 L 120.367188 163.746094 L 119.96875 163.726562 L 119.964844 163.773438 " fill-opacity="1" fill-rule="nonzero"/><path fill="rgb(97.648621%, 65.879822%, 14.898682%)" d="M 122.378906 163.886719 L 122.984375 163.9375 L 122.992188 163.863281 L 122.390625 163.769531 L 122.378906 163.886719 " fill-opacity="1" fill-rule="nonzero"/><path fill="rgb(97.648621%, 65.879822%, 14.898682%)" d="M 126.925781 167.425781 L 127.371094 167.457031 L 127.375 167.335938 L 126.929688 167.328125 L 126.925781 167.425781 " fill-opacity="1" fill-rule="nonzero"/><path fill="rgb(97.648621%, 65.879822%, 14.898682%)" d="M 123.128906 151.511719 L 123.960938 151.425781 L 123.957031 151.296875 L 123.117188 151.289062 L 123.128906 151.511719 " fill-opacity="1" fill-rule="nonzero"/><path fill="rgb(97.648621%, 65.879822%, 14.898682%)" d="M 137.046875 168.558594 L 137.875 168.503906 L 137.871094 168.363281 L 137.042969 168.441406 L 137.046875 168.558594 " fill-opacity="1" fill-rule="nonzero"/><path fill="rgb(97.648621%, 65.879822%, 14.898682%)" d="M 136.503906 179.96875 L 137.035156 179.957031 L 137.03125 179.851562 L 136.5 179.882812 L 136.503906 179.96875 " fill-opacity="1" fill-rule="nonzero"/><path fill="rgb(97.648621%, 65.879822%, 14.898682%)" d="M 101.355469 174.101562 L 101.847656 174.117188 L 101.859375 174.019531 L 101.367188 173.964844 L 101.355469 174.101562 " fill-opacity="1" fill-rule="nonzero"/><path fill="rgb(97.648621%, 65.879822%, 14.898682%)" d="M 86.128906 169.835938 L 86.789062 169.800781 L 86.777344 169.648438 L 86.117188 169.679688 L 86.128906 169.835938 " fill-opacity="1" fill-rule="nonzero"/><path fill="rgb(97.648621%, 65.879822%, 14.898682%)" d="M 98.253906 167.789062 L 98.875 167.761719 L 98.875 167.605469 L 98.253906 167.644531 L 98.253906 167.789062 " fill-opacity="1" fill-rule="nonzero"/><path fill="rgb(97.648621%, 65.879822%, 14.898682%)" d="M 112.195312 167.867188 L 112.902344 167.828125 L 112.902344 167.667969 L 112.191406 167.683594 L 112.195312 167.867188 " fill-opacity="1" fill-rule="nonzero"/><path fill="rgb(97.648621%, 65.879822%, 14.898682%)" d="M 96.882812 161.769531 L 97.355469 161.746094 L 97.355469 161.648438 L 96.886719 161.660156 L 96.882812 161.769531 " fill-opacity="1" fill-rule="nonzero"/><path fill="rgb(97.648621%, 65.879822%, 14.898682%)" d="M 84.898438 160.882812 L 85.585938 160.8125 L 85.578125 160.6875 L 84.890625 160.742188 L 84.898438 160.882812 " fill-opacity="1" fill-rule="nonzero"/><path fill="rgb(97.648621%, 65.879822%, 14.898682%)" d="M 107.28125 167.066406 L 107.941406 167.140625 L 107.949219 167.019531 L 107.292969 166.929688 L 107.28125 167.066406 " fill-opacity="1" fill-rule="nonzero"/><path fill="rgb(97.648621%, 65.879822%, 14.898682%)" d="M 107.304688 164.769531 L 107.894531 164.765625 L 107.886719 164.625 L 107.300781 164.675781 L 107.304688 164.769531 " fill-opacity="1" fill-rule="nonzero"/><path fill="rgb(97.648621%, 65.879822%, 14.898682%)" d="M 83.886719 155.460938 L 84.558594 155.457031 L 84.5625 155.289062 L 83.890625 155.324219 L 83.886719 155.460938 " fill-opacity="1" fill-rule="nonzero"/><path fill="rgb(97.648621%, 65.879822%, 14.898682%)" d="M 87.066406 147.46875 L 87.8125 147.441406 L 87.804688 147.296875 L 87.058594 147.367188 L 87.066406 147.46875 " fill-opacity="1" fill-rule="nonzero"/><path fill="rgb(97.648621%, 65.879822%, 14.898682%)" d="M 91.132812 146.433594 L 91.652344 146.390625 L 91.648438 146.324219 L 91.128906 146.359375 L 91.132812 146.433594 " fill-opacity="1" fill-rule="nonzero"/><path fill="rgb(97.648621%, 65.879822%, 14.898682%)" d="M 74.136719 142.996094 L 74.894531 143.039062 L 74.902344 142.894531 L 74.144531 142.851562 L 74.136719 142.996094 " fill-opacity="1" fill-rule="nonzero"/><path fill="rgb(97.648621%, 65.879822%, 14.898682%)" d="M 66.160156 143.15625 L 66.601562 143.179688 L 66.605469 143.121094 L 66.164062 143.101562 L 66.160156 143.15625 " fill-opacity="1" fill-rule="nonzero"/><path fill="rgb(97.648621%, 65.879822%, 14.898682%)" d="M 89.109375 137.101562 L 89.710938 137.109375 L 89.707031 137.011719 L 89.109375 137.042969 L 89.109375 137.101562 " fill-opacity="1" fill-rule="nonzero"/><path fill="rgb(97.648621%, 65.879822%, 14.898682%)" d="M 66.023438 140.777344 L 66.742188 140.683594 L 66.734375 140.601562 L 66.011719 140.671875 L 66.023438 140.777344 " fill-opacity="1" fill-rule="nonzero"/><path fill="rgb(97.648621%, 65.879822%, 14.898682%)" d="M 103.847656 145.246094 L 104.472656 145.339844 L 104.496094 145.164062 L 103.867188 145.09375 L 103.847656 145.246094 " fill-opacity="1" fill-rule="nonzero"/><path fill="rgb(97.648621%, 65.879822%, 14.898682%)" d="M 123.519531 141.867188 L 124.292969 141.730469 L 124.277344 141.597656 L 123.496094 141.660156 L 123.519531 141.867188 " fill-opacity="1" fill-rule="nonzero"/><path fill="rgb(97.648621%, 65.879822%, 14.898682%)" d="M 126.082031 147.714844 L 127 147.597656 L 126.984375 147.414062 L 126.070312 147.519531 L 126.082031 147.714844 " fill-opacity="1" fill-rule="nonzero"/><path fill="rgb(97.648621%, 65.879822%, 14.898682%)" d="M 72.621094 137.160156 L 73.402344 137.066406 L 73.382812 136.890625 L 72.597656 136.980469 L 72.621094 137.160156 " fill-opacity="1" fill-rule="nonzero"/><path fill="rgb(97.648621%, 65.879822%, 14.898682%)" d="M 63.558594 145.808594 L 64.277344 145.710938 L 64.277344 145.613281 L 63.554688 145.632812 L 63.558594 145.808594 " fill-opacity="1" fill-rule="nonzero"/><path fill="rgb(97.648621%, 65.879822%, 14.898682%)" d="M 85.558594 155.527344 L 86.199219 155.546875 L 86.195312 155.371094 L 85.554688 155.378906 L 85.558594 155.527344 " fill-opacity="1" fill-rule="nonzero"/><path fill="rgb(97.648621%, 65.879822%, 14.898682%)" d="M 78.972656 154.367188 L 79.660156 154.410156 L 79.667969 154.285156 L 78.984375 154.214844 L 78.972656 154.367188 " fill-opacity="1" fill-rule="nonzero"/><path fill="rgb(97.648621%, 65.879822%, 14.898682%)" d="M 81.320312 163.914062 L 81.890625 163.964844 L 81.898438 163.84375 L 81.332031 163.773438 L 81.320312 163.914062 " fill-opacity="1" fill-rule="nonzero"/><path fill="rgb(97.648621%, 65.879822%, 14.898682%)" d="M 89.464844 173.789062 L 90.003906 173.773438 L 89.996094 173.691406 L 89.464844 173.730469 L 89.464844 173.789062 " fill-opacity="1" fill-rule="nonzero"/><path fill="rgb(97.648621%, 65.879822%, 14.898682%)" d="M 93.730469 181.421875 L 94.34375 181.433594 L 94.351562 181.300781 L 93.734375 181.300781 L 93.730469 181.421875 " fill-opacity="1" fill-rule="nonzero"/><path fill="rgb(97.648621%, 65.879822%, 14.898682%)" d="M 70.925781 164.46875 L 71.355469 164.503906 L 71.355469 164.410156 L 70.921875 164.410156 L 70.925781 164.46875 " fill-opacity="1" fill-rule="nonzero"/><path fill="rgb(97.648621%, 65.879822%, 14.898682%)" d="M 71.445312 160.5625 L 72.078125 160.5625 L 72.074219 160.441406 L 71.441406 160.398438 L 71.445312 160.5625 " fill-opacity="1" fill-rule="nonzero"/><path fill="rgb(97.648621%, 65.879822%, 14.898682%)" d="M 65.191406 152.304688 L 65.859375 152.265625 L 65.855469 152.125 L 65.1875 152.136719 L 65.191406 152.304688 " fill-opacity="1" fill-rule="nonzero"/><path fill="rgb(97.648621%, 65.879822%, 14.898682%)" d="M 60.746094 149.5 L 61.464844 149.46875 L 61.457031 149.367188 L 60.738281 149.367188 L 60.746094 149.5 " fill-opacity="1" fill-rule="nonzero"/><path fill="rgb(97.648621%, 65.879822%, 14.898682%)" d="M 63.5625 153.835938 L 64.554688 153.890625 L 64.566406 153.675781 L 63.574219 153.652344 L 63.5625 153.835938 " fill-opacity="1" fill-rule="nonzero"/><path fill="rgb(97.648621%, 65.879822%, 14.898682%)" d="M 69.710938 154.511719 L 70.339844 154.609375 L 70.355469 154.476562 L 69.71875 154.4375 L 69.710938 154.511719 " fill-opacity="1" fill-rule="nonzero"/><path fill="rgb(97.648621%, 65.879822%, 14.898682%)" d="M 65.75 154.304688 L 66.621094 154.304688 L 66.628906 154.09375 L 65.757812 154.117188 L 65.75 154.304688 " fill-opacity="1" fill-rule="nonzero"/><path fill="rgb(97.648621%, 65.879822%, 14.898682%)" d="M 78.535156 167.285156 L 79.375 167.269531 L 79.382812 167.152344 L 78.550781 167.085938 L 78.535156 167.285156 " fill-opacity="1" fill-rule="nonzero"/><path fill="rgb(97.648621%, 65.879822%, 14.898682%)" d="M 65.644531 157.015625 L 66.144531 157.015625 L 66.152344 156.917969 L 65.652344 156.898438 L 65.644531 157.015625 " fill-opacity="1" fill-rule="nonzero"/><path fill="rgb(97.648621%, 65.879822%, 14.898682%)" d="M 122.320312 175.921875 L 123.054688 175.828125 L 123.050781 175.726562 L 122.316406 175.765625 L 122.320312 175.921875 " fill-opacity="1" fill-rule="nonzero"/><path fill="rgb(97.648621%, 65.879822%, 14.898682%)" d="M 133.324219 169.886719 L 133.882812 169.882812 L 133.890625 169.757812 L 133.332031 169.722656 L 133.324219 169.886719 " fill-opacity="1" fill-rule="nonzero"/><path fill="rgb(97.648621%, 65.879822%, 14.898682%)" d="M 135.558594 178.023438 L 136.050781 177.96875 L 136.046875 177.875 L 135.554688 177.9375 L 135.558594 178.023438 " fill-opacity="1" fill-rule="nonzero"/><path fill="rgb(97.648621%, 65.879822%, 14.898682%)" d="M 135.796875 191.046875 L 136.632812 191.058594 L 136.636719 190.894531 L 135.796875 190.910156 L 135.796875 191.046875 " fill-opacity="1" fill-rule="nonzero"/><path fill="rgb(97.648621%, 65.879822%, 14.898682%)" d="M 157.222656 143.449219 L 157.84375 143.4375 L 157.84375 143.324219 L 157.222656 143.378906 L 157.222656 143.449219 " fill-opacity="1" fill-rule="nonzero"/><path fill="rgb(97.648621%, 65.879822%, 14.898682%)" d="M 150.109375 142.933594 L 150.507812 142.96875 L 150.511719 142.867188 L 150.109375 142.898438 L 150.109375 142.933594 " fill-opacity="1" fill-rule="nonzero"/><path fill="rgb(97.648621%, 65.879822%, 14.898682%)" d="M 144.335938 140.867188 L 144.816406 140.910156 L 144.820312 140.851562 L 144.339844 140.8125 L 144.335938 140.867188 " fill-opacity="1" fill-rule="nonzero"/><path fill="rgb(97.648621%, 65.879822%, 14.898682%)" d="M 134.789062 137.980469 L 135.367188 137.957031 L 135.363281 137.839844 L 134.785156 137.828125 L 134.789062 137.980469 " fill-opacity="1" fill-rule="nonzero"/><path fill="rgb(97.648621%, 65.879822%, 14.898682%)" d="M 144.855469 132.328125 L 145.433594 132.308594 L 145.429688 132.1875 L 144.851562 132.179688 L 144.855469 132.328125 " fill-opacity="1" fill-rule="nonzero"/><path fill="rgb(97.648621%, 65.879822%, 14.898682%)" d="M 130.222656 149.667969 L 130.863281 149.574219 L 130.84375 149.4375 L 130.207031 149.554688 L 130.222656 149.667969 " fill-opacity="1" fill-rule="nonzero"/><path fill="rgb(97.648621%, 65.879822%, 14.898682%)" d="M 122.378906 170.703125 L 123.148438 170.777344 L 123.160156 170.578125 L 122.390625 170.570312 L 122.378906 170.703125 " fill-opacity="1" fill-rule="nonzero"/><path fill="rgb(97.648621%, 65.879822%, 14.898682%)" d="M 119.777344 177.617188 L 120.3125 177.527344 L 120.308594 177.453125 L 119.769531 177.507812 L 119.777344 177.617188 " fill-opacity="1" fill-rule="nonzero"/><path fill="rgb(97.648621%, 65.879822%, 14.898682%)" d="M 93.433594 169.894531 L 94.039062 169.945312 L 94.039062 169.828125 L 93.4375 169.789062 L 93.433594 169.894531 " fill-opacity="1" fill-rule="nonzero"/><path fill="rgb(97.648621%, 65.879822%, 14.898682%)" d="M 70.496094 145.210938 L 70.949219 145.234375 L 70.953125 145.195312 L 70.5 145.136719 L 70.496094 145.210938 " fill-opacity="1" fill-rule="nonzero"/><g clip-path="url(#id3)"><path fill="rgb(32.548523%, 0%, 45.489502%)" d="M 122.464844 171.003906 L 145.402344 148.265625 C 148.125 145.570312 148.125 141.199219 145.402344 138.503906 C 142.683594 135.808594 138.277344 135.808594 135.558594 138.503906 L 112.617188 161.242188 L 89.675781 138.503906 C 86.957031 135.808594 82.546875 135.808594 79.828125 138.503906 C 77.109375 141.199219 77.109375 145.570312 79.828125 148.269531 L 102.769531 171.003906 L 79.773438 193.796875 C 77.054688 196.492188 77.054688 200.863281 79.773438 203.558594 C 81.128906 204.90625 82.914062 205.578125 84.695312 205.578125 C 86.476562 205.578125 88.261719 204.90625 89.621094 203.558594 L 112.613281 180.765625 L 135.554688 203.5 C 136.914062 204.851562 138.695312 205.523438 140.476562 205.523438 C 142.257812 205.523438 144.039062 204.851562 145.398438 203.5 C 148.121094 200.808594 148.121094 196.4375 145.398438 193.742188 Z M 122.464844 171.003906 " fill-opacity="1" fill-rule="nonzero"/></g></svg>