<svg xmlns="http://www.w3.org/2000/svg" xmlns:xlink="http://www.w3.org/1999/xlink" width="300" zoomAndPan="magnify" viewBox="0 0 224.87999 225" height="300" preserveAspectRatio="xMidYMid meet" version="1.0"><defs><clipPath id="id1"><path d="M 24 0.0585938 L 200.824219 0.0585938 L 200.824219 28 L 24 28 Z M 24 0.0585938 " clip-rule="nonzero"/></clipPath><clipPath id="id2"><path d="M 24 197 L 200.824219 197 L 200.824219 224.9375 L 24 224.9375 Z M 24 197 " clip-rule="nonzero"/></clipPath></defs><path fill="rgb(17.649841%, 0%, 25.489807%)" d="M 38.738281 201.988281 L 33.019531 201.988281 L 33.019531 23.023438 L 38.738281 23.023438 L 38.738281 201.988281 " fill-opacity="1" fill-rule="nonzero"/><path fill="rgb(17.649841%, 0%, 25.489807%)" d="M 191.726562 201.988281 L 186.003906 201.988281 L 186.003906 23.023438 L 191.726562 23.023438 L 191.726562 201.988281 " fill-opacity="1" fill-rule="nonzero"/><path fill="rgb(17.649841%, 0%, 25.489807%)" d="M 125.476562 117.089844 C 125.476562 87.144531 174.699219 115.324219 174.699219 22.980469 L 49.667969 22.980469 C 49.667969 115.324219 98.894531 87.144531 98.894531 117.089844 C 98.894531 147.035156 49.667969 127.460938 49.667969 211.191406 L 174.699219 211.191406 C 174.699219 127.460938 125.476562 147.035156 125.476562 117.089844 " fill-opacity="1" fill-rule="nonzero"/><path fill="rgb(97.648621%, 65.879822%, 14.898682%)" d="M 119.496094 117.089844 C 119.496094 95.40625 135.421875 102.921875 146.894531 87.972656 C 136.78125 78.769531 120.742188 80.910156 105.574219 73.328125 C 93.503906 66.742188 77.960938 65.992188 65.378906 67.660156 C 75.355469 107.511719 104.863281 88.855469 104.863281 117.089844 C 104.863281 145.574219 59.285156 133.480469 59.285156 206.601562 L 165.085938 206.601562 C 165.085938 132.15625 119.496094 145.574219 119.496094 117.089844 " fill-opacity="1" fill-rule="nonzero"/><g clip-path="url(#id1)"><path fill="rgb(17.649841%, 0%, 25.489807%)" d="M 193.265625 27.570312 L 31.476562 27.570312 C 27.414062 27.570312 24.117188 24.269531 24.117188 20.191406 L 24.117188 7.417969 C 24.117188 3.347656 27.414062 0.046875 31.476562 0.046875 L 193.265625 0.046875 C 197.332031 0.046875 200.628906 3.347656 200.628906 7.417969 L 200.628906 20.191406 C 200.628906 24.269531 197.332031 27.570312 193.265625 27.570312 " fill-opacity="1" fill-rule="nonzero"/></g><g clip-path="url(#id2)"><path fill="rgb(17.649841%, 0%, 25.489807%)" d="M 193.265625 224.953125 L 31.476562 224.953125 C 27.414062 224.953125 24.117188 221.652344 24.117188 217.582031 L 24.117188 204.808594 C 24.117188 200.730469 27.414062 197.429688 31.476562 197.429688 L 193.265625 197.429688 C 197.332031 197.429688 200.628906 200.730469 200.628906 204.808594 L 200.628906 217.582031 C 200.628906 221.652344 197.332031 224.953125 193.265625 224.953125 " fill-opacity="1" fill-rule="nonzero"/></g></svg>