<svg xmlns="http://www.w3.org/2000/svg" xmlns:xlink="http://www.w3.org/1999/xlink" width="300" zoomAndPan="magnify" viewBox="0 0 224.87999 225" height="300" preserveAspectRatio="xMidYMid meet" version="1.0"><defs><clipPath id="id1"><path d="M 0.179688 0.0585938 L 181.242188 0.0585938 L 181.242188 224.9375 L 0.179688 224.9375 Z M 0.179688 0.0585938 " clip-rule="nonzero"/></clipPath><clipPath id="id2"><path d="M 204 76 L 224.761719 76 L 224.761719 149 L 204 149 Z M 204 76 " clip-rule="nonzero"/></clipPath></defs><path fill="rgb(17.649841%, 0%, 25.489807%)" d="M 177.621094 194.492188 L 177.621094 221.421875 L 3.800781 221.421875 L 3.800781 194.492188 C 3.800781 184.742188 10.324219 176.15625 19.703125 173.554688 L 61.375 161.96875 L 68.984375 192.453125 L 90.710938 174.347656 L 112.441406 192.453125 L 120.050781 161.96875 L 161.722656 173.554688 C 171.101562 176.15625 177.621094 184.742188 177.621094 194.492188 " fill-opacity="1" fill-rule="nonzero"/><path fill="rgb(17.649841%, 0%, 25.489807%)" d="M 120.050781 161.96875 L 112.441406 192.453125 L 90.710938 174.347656 L 112.441406 159.863281 L 120.050781 161.96875 " fill-opacity="1" fill-rule="nonzero"/><path fill="rgb(17.649841%, 0%, 25.489807%)" d="M 90.710938 174.347656 L 68.984375 192.453125 L 61.375 161.96875 L 68.984375 159.863281 L 90.710938 174.347656 " fill-opacity="1" fill-rule="nonzero"/><path fill="rgb(0%, 0%, 0%)" d="M 151.808594 58.933594 L 148.652344 62.089844 L 148.511719 62.203125 C 148 61.507812 147.449219 60.898438 146.84375 60.277344 C 143.363281 56.796875 138.652344 54.84375 133.730469 54.84375 L 111.351562 54.84375 C 107.121094 54.84375 102.992188 55.792969 99.257812 57.605469 C 95.5625 59.371094 92.226562 62.015625 89.59375 65.3125 C 85.648438 70.277344 83.46875 76.402344 83.46875 82.742188 L 83.46875 87.4375 L 79.847656 87.4375 C 76.835938 87.4375 74.121094 88.667969 72.167969 90.621094 C 70.214844 92.585938 68.984375 95.300781 68.984375 98.300781 C 68.984375 104.3125 73.835938 109.164062 79.847656 109.164062 L 83.46875 109.164062 C 83.46875 116.988281 81.363281 124.597656 77.5 131.21875 C 75.621094 134.414062 73.328125 137.414062 70.652344 140.085938 L 68.984375 141.753906 L 67.964844 141.898438 L 65.039062 129.957031 C 62.859375 123.367188 59.789062 117.101562 55.914062 111.371094 L 43.269531 92.585938 C 38.742188 84.464844 36.394531 75.3125 36.394531 66.035156 C 36.394531 35.875 60.878906 11.390625 91.039062 11.390625 L 93.03125 11.390625 C 113.304688 11.390625 133.050781 8.972656 152.273438 4.148438 L 155.386719 8.320312 C 160.421875 15.011719 163.136719 23.160156 163.136719 31.5625 C 163.136719 41.847656 159.050781 51.691406 151.808594 58.933594 " fill-opacity="1" fill-rule="nonzero"/><path fill="rgb(97.648621%, 65.879822%, 14.898682%)" d="M 112.652344 141.105469 L 112.441406 141.753906 L 112.441406 159.863281 L 90.710938 174.347656 L 68.984375 159.863281 L 68.984375 154.21875 C 68.984375 150.085938 68.660156 145.957031 67.964844 141.898438 L 68.984375 141.753906 L 70.652344 140.085938 C 73.328125 137.414062 75.621094 134.414062 77.5 131.21875 L 90.710938 134.511719 L 112.652344 141.105469 " fill-opacity="1" fill-rule="nonzero"/><path fill="rgb(97.648621%, 65.879822%, 14.898682%)" d="M 162.046875 100.480469 C 162.742188 101.414062 163.136719 102.574219 163.136719 103.734375 C 163.136719 106.746094 160.71875 109.164062 157.707031 109.164062 L 155.894531 109.164062 L 150.503906 119.957031 C 149.304688 122.390625 148.652344 125.0625 148.652344 127.824219 C 148.652344 132.675781 146.699219 137.058594 143.519531 140.242188 C 140.320312 143.425781 135.9375 145.378906 131.082031 145.378906 L 126.925781 145.378906 L 112.652344 141.105469 L 90.710938 134.511719 L 77.5 131.21875 C 81.363281 124.597656 83.46875 116.988281 83.46875 109.164062 L 79.847656 109.164062 C 73.835938 109.164062 68.984375 104.3125 68.984375 98.300781 C 68.984375 95.300781 70.214844 92.585938 72.167969 90.621094 C 74.121094 88.667969 76.835938 87.4375 79.847656 87.4375 L 83.46875 87.4375 L 83.46875 82.742188 C 83.46875 76.402344 85.648438 70.277344 89.59375 65.3125 C 92.226562 62.015625 95.5625 59.371094 99.257812 57.605469 C 102.992188 55.792969 107.121094 54.84375 111.351562 54.84375 L 133.730469 54.84375 C 138.652344 54.84375 143.363281 56.796875 146.84375 60.277344 C 147.449219 60.898438 148 61.507812 148.511719 62.203125 C 150.929688 65.382812 152.273438 69.332031 152.273438 73.390625 C 152.273438 82.515625 155.246094 91.382812 160.71875 98.667969 L 162.046875 100.480469 " fill-opacity="1" fill-rule="nonzero"/><g clip-path="url(#id1)"><path fill="rgb(0%, 0%, 0%)" d="M 174 217.800781 L 7.421875 217.800781 L 7.421875 194.492188 C 7.421875 186.386719 12.882812 179.214844 20.679688 177.035156 L 58.757812 166.46875 L 66.878906 198.933594 L 90.710938 179.058594 L 114.546875 198.933594 L 122.667969 166.46875 L 160.746094 177.035156 C 168.542969 179.214844 174 186.386719 174 194.492188 Z M 58.914062 109.347656 L 46.4375 90.816406 C 42.234375 83.25 40.015625 74.691406 40.015625 66.035156 C 40.015625 37.898438 62.902344 15.011719 91.039062 15.011719 L 93.03125 15.011719 C 112.652344 15.011719 132.128906 12.71875 150.816406 8.234375 L 152.484375 10.472656 C 157.027344 16.511719 159.515625 24.007812 159.515625 31.546875 C 159.515625 40.941406 155.867188 49.753906 149.234375 56.402344 L 148.609375 57.011719 C 144.523438 53.289062 139.289062 51.222656 133.730469 51.222656 L 111.363281 51.222656 C 101.730469 51.222656 92.761719 55.539062 86.75 63.050781 C 82.296875 68.625 79.847656 75.609375 79.847656 82.742188 L 79.847656 83.816406 C 71.855469 83.816406 65.363281 90.324219 65.363281 98.300781 C 65.363281 106.238281 71.773438 112.699219 79.691406 112.785156 C 78.957031 121.0625 75.691406 128.796875 70.300781 135.121094 C 69.777344 133 69.183594 130.878906 68.476562 128.796875 C 66.183594 121.910156 62.957031 115.359375 58.914062 109.347656 Z M 68.363281 163.792969 L 84.671875 174.671875 L 71.09375 185.976562 L 65.730469 164.53125 Z M 157.804688 100.847656 L 159.148438 102.644531 C 159.390625 102.953125 159.515625 103.351562 159.515625 103.734375 C 159.515625 104.738281 158.710938 105.542969 157.707031 105.542969 L 153.660156 105.542969 L 147.265625 118.316406 C 145.808594 121.246094 145.03125 124.527344 145.03125 127.808594 C 145.03125 135.503906 138.765625 141.753906 131.070312 141.753906 L 127.460938 141.753906 L 91.746094 131.046875 L 89.679688 137.980469 L 108.820312 143.722656 L 108.820312 157.925781 L 90.710938 169.992188 L 72.605469 157.925781 L 72.605469 154.21875 C 72.605469 150.78125 72.324219 147.371094 71.882812 143.976562 L 73.230469 142.632812 C 82.167969 133.691406 87.089844 121.8125 87.089844 109.164062 L 87.089844 105.542969 L 79.847656 105.542969 C 75.859375 105.542969 72.605469 102.304688 72.605469 98.300781 C 72.605469 94.3125 75.859375 91.058594 79.847656 91.058594 L 87.089844 91.058594 L 87.089844 82.742188 C 87.089844 77.253906 88.988281 71.863281 92.410156 67.578125 C 97.035156 61.792969 103.953125 58.46875 111.363281 58.46875 L 133.730469 58.46875 C 137.71875 58.46875 141.464844 60.023438 144.28125 62.835938 C 147.097656 65.652344 148.652344 69.402344 148.652344 73.390625 C 148.652344 83.234375 151.90625 92.980469 157.804688 100.847656 Z M 113.0625 163.792969 L 115.695312 164.53125 L 110.332031 185.976562 L 96.753906 174.671875 Z M 162.683594 170.0625 L 116.0625 157.117188 L 116.0625 145.902344 L 125.890625 148.84375 L 131.070312 149 C 142.769531 149 152.273438 139.492188 152.273438 127.808594 C 152.273438 125.644531 152.78125 123.492188 153.746094 121.554688 L 158.144531 112.773438 C 162.925781 112.546875 166.757812 108.585938 166.757812 103.734375 C 166.757812 101.792969 166.121094 99.855469 164.949219 98.300781 L 163.605469 96.503906 C 158.625 89.882812 155.894531 81.679688 155.894531 73.390625 C 155.894531 69.597656 154.933594 65.949219 153.152344 62.710938 L 154.351562 61.523438 C 162.34375 53.515625 166.757812 42.878906 166.757812 31.546875 C 166.757812 22.453125 163.746094 13.414062 158.285156 6.128906 L 153.714844 0.0585938 L 151.382812 0.640625 C 132.457031 5.378906 112.820312 7.769531 93.03125 7.769531 L 91.039062 7.769531 C 58.914062 7.769531 32.773438 33.910156 32.773438 66.035156 C 32.773438 75.921875 35.304688 85.695312 40.269531 94.59375 L 52.902344 113.394531 C 56.59375 118.855469 59.523438 124.808594 61.613281 131.089844 C 64.105469 138.558594 65.363281 146.339844 65.363281 154.21875 L 65.363281 157.117188 L 18.738281 170.0625 C 7.820312 173.101562 0.179688 183.144531 0.179688 194.492188 L 0.179688 225.042969 L 181.242188 225.042969 L 181.242188 194.492188 C 181.242188 183.144531 173.605469 173.101562 162.683594 170.0625 " fill-opacity="1" fill-rule="nonzero"/></g><g clip-path="url(#id2)"><path fill="rgb(0%, 0%, 0%)" d="M 209.847656 76.941406 L 204.726562 82.0625 C 212.945312 90.265625 217.457031 101.1875 217.457031 112.785156 C 217.457031 124.398438 212.945312 135.304688 204.726562 143.511719 L 209.847656 148.628906 C 219.421875 139.066406 224.699219 126.335938 224.699219 112.785156 C 224.699219 99.25 219.421875 86.515625 209.847656 76.941406 " fill-opacity="1" fill-rule="nonzero"/></g><path fill="rgb(0%, 0%, 0%)" d="M 199.605469 87.183594 L 194.484375 92.304688 C 199.957031 97.777344 202.972656 105.046875 202.972656 112.785156 C 202.972656 120.523438 199.957031 127.808594 194.484375 133.269531 L 199.605469 138.390625 C 206.453125 131.558594 210.214844 122.460938 210.214844 112.785156 C 210.214844 103.109375 206.453125 94.015625 199.605469 87.183594 " fill-opacity="1" fill-rule="nonzero"/><path fill="rgb(0%, 0%, 0%)" d="M 189.363281 97.421875 L 184.242188 102.542969 C 186.988281 105.273438 188.488281 108.925781 188.488281 112.785156 C 188.488281 116.660156 186.988281 120.296875 184.242188 123.027344 L 189.363281 128.148438 C 193.464844 124.046875 195.730469 118.597656 195.730469 112.785156 C 195.730469 106.984375 193.464844 101.527344 189.363281 97.421875 " fill-opacity="1" fill-rule="nonzero"/></svg>