<svg xmlns="http://www.w3.org/2000/svg" xmlns:xlink="http://www.w3.org/1999/xlink" width="300" zoomAndPan="magnify" viewBox="0 0 224.87999 225" height="300" preserveAspectRatio="xMidYMid meet" version="1.0"><defs><clipPath id="id1"><path d="M 0 25.199219 L 224.761719 25.199219 L 224.761719 199.855469 L 0 199.855469 Z M 0 25.199219 " clip-rule="nonzero"/></clipPath></defs><g clip-path="url(#id1)"><path fill="rgb(97.648621%, 65.879822%, 14.898682%)" d="M 29.679688 199.855469 C 27.179688 199.855469 25.191406 197.816406 25.191406 195.367188 C 25.191406 182.460938 25.90625 172.566406 28.507812 164.507812 L 4.488281 164.507812 C 2.042969 164.507812 0 162.464844 0 160.019531 C 0 148.082031 1.226562 140.839844 6.988281 135.074219 C 11.933594 130.125 19.835938 126.964844 33.097656 123.292969 C 28.609375 119.976562 25.242188 114.058594 23.660156 107.425781 C 22.539062 102.835938 22.234375 97.886719 22.847656 93.144531 C 23.507812 88.246094 25.242188 83.503906 28.199219 79.78125 C 32.125 74.78125 38.09375 71.566406 46.457031 71.566406 C 54.820312 71.566406 60.785156 74.78125 64.710938 79.78125 C 67.667969 83.503906 69.402344 88.246094 70.066406 93.144531 C 70.726562 97.886719 70.371094 102.835938 69.25 107.425781 C 67.667969 114.058594 64.355469 119.976562 59.867188 123.292969 C 63.488281 124.261719 66.75 125.28125 69.605469 126.25 C 72.921875 127.371094 75.726562 128.492188 78.171875 129.71875 C 82.253906 128.441406 86.6875 127.21875 91.429688 125.890625 L 91.429688 121.199219 C 82.046875 115.996094 74.960938 104.164062 71.695312 90.59375 C 69.605469 82.074219 68.996094 72.84375 70.167969 64.019531 C 71.390625 55.039062 74.5 46.523438 79.855469 39.738281 C 86.839844 30.964844 97.449219 25.199219 112.441406 25.199219 C 127.433594 25.199219 138.039062 30.964844 145.023438 39.738281 C 150.378906 46.523438 153.488281 55.039062 154.710938 64.019531 C 155.886719 72.84375 155.273438 82.074219 153.183594 90.59375 C 149.917969 104.164062 142.832031 115.996094 133.449219 121.199219 L 133.449219 125.890625 C 138.191406 127.21875 142.628906 128.441406 146.707031 129.71875 C 149.15625 128.492188 151.960938 127.371094 155.273438 126.25 C 158.128906 125.28125 161.394531 124.3125 165.011719 123.292969 C 160.527344 119.976562 157.210938 114.058594 155.628906 107.425781 C 154.507812 102.835938 154.152344 97.886719 154.816406 93.144531 C 155.476562 88.246094 157.210938 83.503906 160.167969 79.78125 C 164.09375 74.78125 170.0625 71.566406 178.425781 71.566406 C 186.785156 71.566406 192.753906 74.78125 196.679688 79.78125 C 199.636719 83.503906 201.371094 88.246094 202.035156 93.144531 C 202.644531 97.886719 202.339844 102.835938 201.21875 107.425781 C 199.636719 114.058594 196.273438 119.976562 191.785156 123.292969 C 205.042969 126.964844 212.945312 130.125 217.890625 135.074219 C 223.65625 140.839844 224.878906 148.082031 224.878906 160.019531 C 224.878906 162.464844 222.839844 164.507812 220.390625 164.507812 L 196.375 164.507812 C 198.972656 172.566406 199.6875 182.460938 199.6875 195.367188 C 199.6875 197.816406 197.699219 199.855469 195.199219 199.855469 Z M 190.664062 190.828125 C 190.457031 178.433594 189.386719 169.503906 185.921875 162.671875 C 185.664062 162.3125 185.460938 161.90625 185.308594 161.496094 C 184.136719 159.355469 182.65625 157.367188 180.820312 155.582031 C 172.304688 147.0625 156.34375 141.347656 127.992188 133.746094 C 125.953125 133.339844 124.421875 131.503906 124.421875 129.359375 L 124.421875 118.34375 C 124.421875 116.558594 125.546875 114.875 127.277344 114.160156 C 135.285156 111.046875 141.503906 100.746094 144.464844 88.503906 C 146.300781 81.003906 146.859375 72.894531 145.789062 65.242188 C 144.820312 57.792969 142.320312 50.753906 137.988281 45.347656 C 132.632812 38.613281 124.371094 34.226562 112.441406 34.226562 C 100.507812 34.226562 92.246094 38.613281 86.894531 45.347656 C 82.558594 50.753906 80.058594 57.792969 79.089844 65.242188 C 78.019531 72.894531 78.582031 81.003906 80.417969 88.503906 C 83.324219 100.644531 89.492188 110.84375 97.347656 114.058594 C 99.132812 114.671875 100.457031 116.355469 100.457031 118.34375 L 100.457031 129.359375 C 100.457031 131.351562 99.132812 133.136719 97.089844 133.695312 C 68.585938 141.347656 52.574219 147.011719 44.058594 155.582031 C 42.222656 157.367188 40.746094 159.355469 39.570312 161.496094 C 39.417969 161.90625 39.214844 162.3125 38.960938 162.621094 C 35.492188 169.503906 34.421875 178.433594 34.21875 190.828125 Z M 32.636719 155.476562 C 34.066406 153.285156 35.695312 151.191406 37.683594 149.253906 C 43.703125 143.234375 52.269531 138.59375 64.761719 134.105469 C 61.550781 133.085938 57.878906 132.015625 53.644531 130.890625 C 51.65625 130.332031 50.332031 128.546875 50.332031 126.554688 L 50.332031 120.996094 C 50.332031 119.007812 51.605469 117.324219 53.390625 116.710938 C 56.652344 115.28125 59.253906 110.742188 60.53125 105.335938 C 61.398438 101.765625 61.652344 97.9375 61.191406 94.367188 C 60.734375 90.949219 59.613281 87.789062 57.675781 85.339844 C 55.378906 82.433594 51.757812 80.546875 46.457031 80.546875 C 41.203125 80.546875 37.53125 82.433594 35.238281 85.339844 C 33.300781 87.789062 32.179688 90.949219 31.71875 94.367188 C 31.261719 97.9375 31.515625 101.765625 32.382812 105.335938 C 33.707031 110.894531 36.410156 115.488281 39.726562 116.8125 C 41.507812 117.476562 42.582031 119.160156 42.582031 120.996094 L 42.582031 126.554688 C 42.582031 128.699219 41.050781 130.535156 39.011719 130.941406 C 25.089844 134.667969 17.339844 137.421875 13.363281 141.398438 C 10.351562 144.410156 9.332031 148.695312 9.078125 155.476562 Z M 160.117188 134.105469 C 172.609375 138.59375 181.179688 143.234375 187.195312 149.253906 C 189.183594 151.191406 190.816406 153.285156 192.242188 155.476562 L 215.800781 155.476562 C 215.546875 148.695312 214.527344 144.410156 211.519531 141.398438 C 207.539062 137.421875 199.789062 134.667969 185.871094 130.941406 C 183.828125 130.535156 182.300781 128.699219 182.300781 126.554688 L 182.300781 120.996094 C 182.300781 119.160156 183.371094 117.476562 185.15625 116.8125 C 188.46875 115.488281 191.171875 110.894531 192.5 105.335938 C 193.363281 101.816406 193.621094 97.9375 193.160156 94.367188 C 192.703125 90.949219 191.582031 87.789062 189.644531 85.339844 C 187.347656 82.433594 183.675781 80.546875 178.425781 80.546875 C 173.121094 80.546875 169.5 82.433594 167.207031 85.339844 C 165.269531 87.789062 164.144531 90.949219 163.6875 94.367188 C 163.226562 97.9375 163.484375 101.765625 164.351562 105.335938 C 165.625 110.742188 168.226562 115.28125 171.488281 116.710938 C 173.273438 117.324219 174.550781 119.007812 174.550781 120.996094 L 174.550781 126.554688 C 174.550781 128.546875 173.222656 130.332031 171.234375 130.890625 C 167.003906 132.015625 163.332031 133.085938 160.117188 134.105469 Z M 160.117188 134.105469 " fill-opacity="1" fill-rule="nonzero"/></g></svg>